<svg width="428" height="297" fill="none" xmlns="http://www.w3.org/2000/svg"><g filter="url(#a)"><path d="m65.365 140.155 20.627 24.065c1.493 1.742-.645 4.218-2.586 2.993l-34.927-22.035c-1.978-1.248-4.123 1.332-2.535 3.049l44.021 47.589c1.589 1.717-.557 4.298-2.535 3.05L26.3 160.298c-2.01-1.268-4.16 1.402-2.492 3.095l54.411 55.226c1.731 1.757-.631 4.478-2.614 3.011l-61.032-45.162c-1.986-1.47-4.35 1.261-2.61 3.015l64.582 65.143-56.965-47.091c-1.85-1.529-4.331.899-2.844 2.781l26.938 34.093c1.394 1.765-.735 4.132-2.636 2.932L5.252 214.764c-1.987-1.254-4.134 1.353-2.522 3.064l17.41 18.47c1.611 1.71-.535 4.318-2.523 3.064L-.73 227.787" stroke="#FFB75E" stroke-opacity=".64" stroke-linecap="round"/></g><g filter="url(#b)"><path d="m405.064 194.834 10.336 12.06c1.493 1.742-.645 4.217-2.586 2.993l-14.172-8.942c-1.978-1.248-4.124 1.333-2.536 3.05l21.273 22.996c1.588 1.717-.558 4.297-2.536 3.049l-29.954-18.898c-2.01-1.268-4.16 1.403-2.492 3.095l24.673 25.043c1.731 1.757-.632 4.478-2.614 3.011l-24.926-18.445c-1.986-1.469-4.349 1.262-2.61 3.016l35.391 35.698-31.817-26.302c-1.849-1.528-4.331.9-2.843 2.782l10.804 13.675c1.394 1.764-.734 4.131-2.636 2.931l-15.03-9.483c-1.988-1.253-4.135 1.354-2.523 3.064l3.672 3.895c1.612 1.71-.535 4.318-2.522 3.064l-7.2-4.542" stroke="#FFB75E" stroke-opacity=".64" stroke-linecap="round"/></g><path opacity=".11" d="M488.985 171.656H254.5L192 125.329l233.281-.065 63.704 46.392Z" fill="#FFB75E"/><defs><filter id="a" x="-5.229" y="135.654" width="100.253" height="113.357" filterUnits="userSpaceOnUse" color-interpolation-filters="sRGB"><feFlood flood-opacity="0" result="BackgroundImageFix"/><feBlend in="SourceGraphic" in2="BackgroundImageFix" result="shape"/><feGaussianBlur stdDeviation="2" result="effect1_foregroundBlur_1207_9"/></filter><filter id="b" x="357.717" y="190.334" width="64.72" height="76.611" filterUnits="userSpaceOnUse" color-interpolation-filters="sRGB"><feFlood flood-opacity="0" result="BackgroundImageFix"/><feBlend in="SourceGraphic" in2="BackgroundImageFix" result="shape"/><feGaussianBlur stdDeviation="2" result="effect1_foregroundBlur_1207_9"/></filter></defs></svg>