<svg width="210" height="185" fill="none" xmlns="http://www.w3.org/2000/svg"><path d="m2.428 84.815 40.01-58.03c1.303-1.889 4.242-.454 3.555 1.735l-30.408 96.833c-.701 2.232 2.342 3.646 3.596 1.671L97.986 2.922c1.254-1.975 4.298-.56 3.597 1.671L52.835 159.83c-.712 2.267 2.419 3.663 3.629 1.617L148.872 5.265c1.256-2.123 4.491-.535 3.579 1.757L83.678 179.96c-.913 2.296 2.332 3.882 3.583 1.752l97.985-166.788-64.491 139.794c-1.004 2.178 1.977 3.957 3.416 2.038l64.378-85.828c1.349-1.799 4.181-.346 3.508 1.8l-30.712 97.8c-.705 2.242 2.365 3.651 3.606 1.655l39.354-63.276c1.241-1.996 4.311-.587 3.607 1.655l-16.187 51.545" stroke="#FFB75E" stroke-width="3" stroke-linecap="round"/></svg>