<svg width="626" height="348" fill="none" xmlns="http://www.w3.org/2000/svg"><path opacity=".17" d="M305.3 42 0 348l138.5-4L439 42H305.3Z" fill="#FFB75E"/><path d="m477.231 85.843 22.027-31.948c1.303-1.889 4.242-.455 3.555 1.735l-15.678 49.925c-.701 2.232 2.343 3.646 3.596 1.672l42.825-67.44c1.254-1.975 4.297-.561 3.597 1.67l-26.621 84.773c-.712 2.267 2.419 3.663 3.629 1.617l49.179-83.118c1.256-2.123 4.491-.535 3.579 1.758L531.401 135.8c-.913 2.296 2.331 3.883 3.583 1.753L590.89 42.39l-37.105 80.433c-1.005 2.178 1.976 3.957 3.416 2.038l33.092-44.12c1.35-1.798 4.182-.345 3.508 1.8l-15.982 50.893c-.704 2.242 2.366 3.651 3.607 1.656l18.161-29.201c1.241-1.995 4.31-.586 3.606 1.656l-8.274 26.35" stroke="#DDD" stroke-width="3" stroke-linecap="round"/></svg>