<svg width="1344" height="330" fill="none" xmlns="http://www.w3.org/2000/svg"><path transform="matrix(1 0 0 -1 0 327)" stroke="url(#a)" stroke-width="3" d="M1.5-1.5h1341v327H1.5z"/><path d="M1261.44 190.241c1.94-3.733 5.41-5.814 10.43-6.246 5.06-.442 9.82.501 14.3 2.827l3.79 1.968c12.64 6.569 16.42 14.76 11.32 24.574-1.14 2.195-2.67 3.826-4.59 4.891-1.89 1.056-3.82 1.612-5.8 1.67-1.96.069-3.89.045-5.78-.073-1.87-.106-3.55-.033-5.05.221-1.46.243-2.4.77-2.83 1.583-.82 1.58-1.9 2.023-3.24 1.327l-7.41-3.849c-.59-.308-.99-.751-1.19-1.33-.17-.589-.1-1.169.2-1.739.98-1.888 2.21-3.369 3.68-4.441 1.48-1.073 2.97-1.736 4.46-1.989 1.51-.276 3.08-.451 4.71-.525 1.65-.063 3.14-.057 4.46.019 3.13.148 5.15-.656 6.07-2.412.91-1.757.98-3.377.22-4.86-.74-1.472-2.42-2.887-5.03-4.244l-1.68-.872c-3.64-1.894-6.84-1.838-9.58.167-2.06 1.55-4.08 1.812-6.05.786l-3.92-2.036c-1.08-.559-1.71-1.376-1.9-2.453-.2-1.076-.06-2.064.41-2.964Zm-2.71 37.402 1.08-2.074c.75-1.449 1.73-2.353 2.91-2.71 1.19-.358 2.48-.178 3.86.541l4.05 2.104c1.39.718 2.27 1.667 2.67 2.846.39 1.179.21 2.493-.55 3.942l-1.07 2.075c-.73 1.405-1.7 2.297-2.9 2.677-1.19.358-2.48.177-3.86-.541l-4.05-2.104c-1.38-.719-2.27-1.668-2.66-2.847-.38-1.2-.21-2.503.52-3.909Z" fill="url(#b)"/><path d="M68.443 69.802c1.078-4.065 4.018-6.856 8.822-8.373 4.835-1.534 9.691-1.654 14.57-.361l4.125 1.093c13.774 3.65 19.245 10.821 16.411 21.51-.633 2.392-1.771 4.317-3.411 5.776-1.611 1.442-3.377 2.407-5.298 2.896a59.2 59.2 0 0 1-5.652 1.19c-1.846.303-3.473.742-4.879 1.317-1.376.556-2.181 1.277-2.416 2.162-.456 1.722-1.414 2.39-2.872 2.003l-8.071-2.14c-.646-.17-1.13-.516-1.453-1.037-.292-.538-.356-1.118-.191-1.74.545-2.057 1.421-3.77 2.629-5.139 1.207-1.369 2.514-2.34 3.92-2.915a35.121 35.121 0 0 1 4.477-1.539c1.597-.421 3.05-.74 4.362-.956 3.086-.538 4.882-1.764 5.39-3.677.506-1.913.226-3.51-.842-4.791-1.044-1.275-2.99-2.29-5.835-3.044l-1.83-.485c-3.97-1.052-7.073-.3-9.312 2.254-1.672 1.963-3.584 2.659-5.736 2.088l-4.269-1.131c-1.171-.31-1.97-.97-2.393-1.978-.424-1.008-.506-2.003-.246-2.983Zm5.526 37.091.599-2.26c.418-1.578 1.169-2.672 2.251-3.281 1.083-.608 2.378-.713 3.884-.314l4.412 1.17c1.507.399 2.58 1.131 3.219 2.196.639 1.065.75 2.387.33 3.966l-.598 2.259c-.406 1.531-1.153 2.612-2.242 3.245-1.083.609-2.378.714-3.884.314l-4.412-1.169c-1.507-.399-2.58-1.131-3.219-2.197-.632-1.089-.746-2.398-.34-3.929Z" fill="url(#c)"/><path d="M1268.5 98.125c-1.87-3.768-1.5-7.805 1.12-12.111 2.63-4.339 6.2-7.63 10.72-9.87l3.83-1.896c12.76-6.328 21.6-4.538 26.51 5.37 1.1 2.217 1.52 4.414 1.24 6.593-.26 2.145-.95 4.035-2.08 5.668a59.133 59.133 0 0 1-3.46 4.619c-1.19 1.445-2.13 2.847-2.81 4.205-.66 1.326-.8 2.398-.39 3.218.79 1.596.51 2.729-.84 3.4l-7.48 3.708c-.6.296-1.19.355-1.78.176-.57-.212-1-.606-1.29-1.183-.94-1.906-1.41-3.772-1.41-5.597.01-1.826.35-3.418 1.03-4.776.67-1.381 1.46-2.75 2.36-4.108.92-1.369 1.8-2.566 2.65-3.592 1.96-2.438 2.51-4.544 1.63-6.317-.88-1.774-2.14-2.79-3.79-3.05-1.63-.272-3.76.246-6.39 1.554l-1.7.84c-3.68 1.824-5.52 4.434-5.52 7.83.03 2.579-.95 4.362-2.94 5.351l-3.96 1.961c-1.08.539-2.12.568-3.1.089-.98-.48-1.7-1.173-2.15-2.082Zm28.59 24.263-1.04-2.095c-.72-1.463-.88-2.78-.46-3.951.41-1.171 1.31-2.103 2.71-2.795l4.09-2.027c1.4-.693 2.69-.848 3.87-.468 1.18.38 2.14 1.302 2.86 2.765l1.04 2.094c.7 1.419.85 2.725.45 3.919-.41 1.171-1.32 2.103-2.71 2.795l-4.09 2.027c-1.4.692-2.69.848-3.87.468-1.2-.403-2.14-1.313-2.85-2.732Z" fill="url(#d)"/><path d="M1194.06 263.267c-1.77-3.57-1.41-7.395 1.07-11.474 2.48-4.111 5.87-7.228 10.15-9.351l3.63-1.796c12.09-5.995 20.47-4.299 25.12 5.087 1.04 2.1 1.43 4.182 1.17 6.246-.25 2.033-.9 3.823-1.97 5.371a54.734 54.734 0 0 1-3.28 4.375c-1.13 1.369-2.01 2.697-2.66 3.984-.63 1.256-.75 2.272-.37 3.049.75 1.512.48 2.585-.8 3.22l-7.08 3.513c-.57.281-1.13.337-1.69.167-.54-.201-.95-.574-1.22-1.12-.89-1.806-1.34-3.574-1.33-5.303 0-1.73.33-3.238.97-4.525a34.843 34.843 0 0 1 2.23-3.892c.88-1.296 1.71-2.431 2.51-3.403 1.87-2.31 2.38-4.305 1.55-5.985-.83-1.679-2.03-2.643-3.59-2.889-1.54-.257-3.56.234-6.06 1.472l-1.61.797c-3.48 1.727-5.22 4.2-5.23 7.418.04 2.443-.89 4.132-2.78 5.069l-3.75 1.858c-1.03.51-2.01.538-2.94.084-.93-.454-1.61-1.111-2.04-1.972Zm27.09 22.986-.98-1.985c-.69-1.386-.84-2.634-.44-3.743.39-1.11 1.24-1.993 2.57-2.649l3.87-1.92c1.33-.656 2.55-.803 3.67-.443 1.12.36 2.02 1.233 2.71 2.619l.98 1.985c.67 1.344.81 2.581.43 3.712-.39 1.109-1.25 1.992-2.57 2.648l-3.88 1.92c-1.32.656-2.54.804-3.66.443-1.13-.381-2.03-1.243-2.7-2.587Z" fill="url(#e)"/><path d="M46.15 194.361c-1.868-3.768-1.495-7.805 1.12-12.111 2.626-4.339 6.2-7.629 10.722-9.87l3.824-1.895c12.767-6.329 21.607-4.539 26.518 5.369 1.099 2.217 1.511 4.414 1.238 6.593-.261 2.146-.954 4.035-2.077 5.669a59.28 59.28 0 0 1-3.468 4.618c-1.189 1.445-2.123 2.847-2.803 4.206-.668 1.325-.8 2.398-.393 3.218.791 1.596.51 2.729-.841 3.399l-7.481 3.708c-.599.297-1.191.356-1.777.176-.574-.212-1.004-.606-1.29-1.182-.945-1.907-1.414-3.772-1.408-5.598.006-1.826.35-3.418 1.029-4.776a35.118 35.118 0 0 1 2.354-4.108 47.392 47.392 0 0 1 2.651-3.592c1.967-2.438 2.511-4.544 1.632-6.317-.879-1.773-2.142-2.79-3.79-3.05-1.625-.272-3.757.247-6.394 1.554l-1.696.841c-3.68 1.823-5.52 4.434-5.52 7.83.035 2.578-.945 4.362-2.94 5.35l-3.957 1.962c-1.086.538-2.12.568-3.103.088-.983-.479-1.7-1.173-2.15-2.082Zm28.593 24.263-1.038-2.094c-.726-1.463-.882-2.78-.468-3.952.413-1.171 1.318-2.103 2.715-2.795l4.09-2.027c1.396-.692 2.685-.848 3.868-.468 1.182.38 2.136 1.302 2.861 2.765l1.039 2.095c.703 1.418.853 2.724.45 3.918-.413 1.171-1.318 2.103-2.714 2.795l-4.09 2.027c-1.396.692-2.686.848-3.868.468-1.194-.402-2.142-1.313-2.845-2.732Z" fill="url(#f)"/><path d="M113.357 240.062c1.985-3.582 5.425-5.517 10.322-5.806 4.929-.298 9.543.743 13.842 3.125l3.634 2.013c12.137 6.724 15.597 14.796 10.378 24.214-1.167 2.108-2.699 3.655-4.595 4.642-1.864.978-3.761 1.469-5.691 1.474a57.724 57.724 0 0 1-5.619-.222c-1.816-.152-3.456-.125-4.92.083-1.432.198-2.364.687-2.796 1.467-.84 1.517-1.903 1.919-3.188 1.207l-7.112-3.94c-.569-.315-.944-.757-1.124-1.325-.148-.578-.071-1.14.233-1.688 1.004-1.812 2.239-3.221 3.704-4.227 1.466-1.005 2.931-1.612 4.396-1.819a34.153 34.153 0 0 1 4.593-.388 46.258 46.258 0 0 1 4.345.135c3.042.226 5.03-.504 5.964-2.19.934-1.685 1.049-3.26.345-4.724-.682-1.452-2.277-2.873-4.785-4.262l-1.612-.893c-3.497-1.938-6.607-1.967-9.328-.087-2.046 1.455-4.017 1.657-5.913.607l-3.761-2.084c-1.033-.572-1.629-1.384-1.789-2.437-.161-1.053-.001-2.011.477-2.875Zm-3.607 36.335 1.103-1.991c.77-1.391 1.739-2.245 2.906-2.562 1.168-.317 2.415-.108 3.742.627l3.888 2.154c1.327.736 2.166 1.682 2.516 2.84.35 1.158.14 2.432-.631 3.823l-1.103 1.991c-.747 1.348-1.71 2.192-2.889 2.53-1.167.317-2.414.108-3.742-.627l-3.887-2.154c-1.328-.736-2.166-1.682-2.516-2.84-.339-1.179-.134-2.442.613-3.791Z" fill="url(#g)"/><path d="M434 25h477" stroke="url(#h)" stroke-linecap="round"/><defs><linearGradient id="a" x1="640.703" y1="15.815" x2="641.842" y2="351.376" gradientUnits="userSpaceOnUse"><stop stop-color="#FFB75E"/><stop offset=".858" stop-color="#FFB75E" stop-opacity="0"/></linearGradient><linearGradient id="b" x1="1302.33" y1="163.116" x2="1251.62" y2="260.73" gradientUnits="userSpaceOnUse"><stop stop-color="#FFB75E"/><stop offset="1" stop-color="#FFE5C5"/></linearGradient><linearGradient id="c" x1="102.433" y1="34.405" x2="74.252" y2="140.734" gradientUnits="userSpaceOnUse"><stop stop-color="#FFD9A9"/><stop offset="1" stop-color="#FFE5C5"/></linearGradient><linearGradient id="d" x1="1270.75" y1="49.102" x2="1319.6" y2="147.66" gradientUnits="userSpaceOnUse"><stop stop-color="#FFD9A9"/><stop offset="1" stop-color="#FFE5C5"/></linearGradient><linearGradient id="e" x1="1196.06" y1="216.541" x2="1242.24" y2="309.723" gradientUnits="userSpaceOnUse"><stop stop-color="#FFD9A9"/><stop offset="1" stop-color="#FFE5C5"/></linearGradient><linearGradient id="f" x1="48.399" y1="145.339" x2="97.251" y2="243.896" gradientUnits="userSpaceOnUse"><stop stop-color="#FFD9A9"/><stop offset="1" stop-color="#FFE5C5"/></linearGradient><linearGradient id="g" x1="153.948" y1="214.59" x2="102.094" y2="308.186" gradientUnits="userSpaceOnUse"><stop stop-color="#FFB75E"/><stop offset="1" stop-color="#FFE5C5"/></linearGradient><linearGradient id="h" x1="911" y1="25" x2="910.897" y2="31.991" gradientUnits="userSpaceOnUse"><stop stop-color="#FFDCB1"/><stop offset=".506" stop-color="#FFB75E"/><stop offset="1" stop-color="#FFE2BF" stop-opacity="0"/></linearGradient></defs></svg>