<svg width="368" height="260" fill="none" xmlns="http://www.w3.org/2000/svg"><path transform="matrix(1 0 0 -1 0 258)" stroke="url(#a)" stroke-width="2" d="M1-1h366v258H1z"/><path d="M73 7h223" stroke="url(#b)" stroke-linecap="round"/><path d="M329.507 151.244c.919-1.768 2.567-2.754 4.944-2.959 2.394-.209 4.651.237 6.772 1.339l1.794.932c5.99 3.112 7.778 6.992 5.363 11.641-.54 1.04-1.265 1.812-2.174 2.317-.894.5-1.81.763-2.749.791a28.22 28.22 0 0 1-2.735-.035c-.885-.05-1.682-.015-2.392.105-.694.115-1.14.365-1.34.749-.389.749-.901.959-1.535.629l-3.51-1.823a1.106 1.106 0 0 1-.564-.63 1.084 1.084 0 0 1 .091-.824c.465-.894 1.047-1.596 1.747-2.104.7-.508 1.404-.822 2.114-.942.714-.13 1.457-.213 2.228-.248.782-.03 1.487-.027 2.115.009 1.482.07 2.44-.311 2.872-1.143.432-.832.467-1.599.106-2.302-.351-.697-1.145-1.367-2.382-2.01l-.796-.413c-1.726-.897-3.239-.871-4.538.079-.975.734-1.931.858-2.867.372l-1.856-.964c-.51-.265-.811-.652-.902-1.162a2.142 2.142 0 0 1 .194-1.404Zm-1.28 17.717.51-.983c.357-.686.817-1.114 1.38-1.284.564-.169 1.173-.084 1.828.257l1.919.996c.655.341 1.075.79 1.261 1.348.185.559.099 1.181-.257 1.868l-.511.982c-.346.666-.803 1.089-1.372 1.269-.563.169-1.172.084-1.828-.257l-1.918-.996c-.655-.341-1.076-.79-1.261-1.349-.18-.569-.097-1.186.249-1.851Z" fill="url(#c)"/><path d="M11.844 76.73c.51-1.926 1.903-3.248 4.179-3.967 2.29-.726 4.59-.783 6.9-.17l1.955.517c6.525 1.73 9.116 5.126 7.774 10.19-.3 1.132-.839 2.044-1.616 2.735-.763.683-1.6 1.14-2.51 1.372-.898.234-1.79.422-2.677.563-.874.144-1.645.352-2.31.624-.653.264-1.034.605-1.145 1.024-.216.816-.67 1.132-1.361.949l-3.823-1.013a1.107 1.107 0 0 1-.688-.492 1.085 1.085 0 0 1-.09-.824c.257-.974.673-1.785 1.244-2.434.572-.649 1.191-1.109 1.858-1.38.669-.284 1.376-.527 2.12-.73.756-.2 1.445-.35 2.066-.453 1.462-.255 2.313-.835 2.553-1.742.24-.906.108-1.662-.398-2.27-.495-.603-1.416-1.084-2.764-1.441l-.867-.23c-1.88-.498-3.35-.142-4.41 1.068-.793.93-1.699 1.26-2.718.99l-2.022-.537c-.555-.147-.933-.46-1.134-.937-.2-.477-.24-.948-.116-1.413Zm2.617 17.569.284-1.07c.198-.748.554-1.266 1.066-1.555.513-.288 1.127-.338 1.84-.149l2.09.554c.714.19 1.222.536 1.525 1.041.302.504.355 1.13.157 1.878l-.284 1.07c-.192.726-.546 1.238-1.062 1.538-.513.288-1.126.338-1.84.149l-2.09-.554c-.714-.19-1.222-.536-1.525-1.04-.3-.517-.353-1.137-.16-1.862Z" fill="url(#d)"/><path d="M330.326 38.497c-.884-1.785-.707-3.697.531-5.737a12.112 12.112 0 0 1 5.079-4.675l1.811-.898c6.048-2.998 10.235-2.15 12.562 2.543.52 1.05.716 2.091.586 3.123-.124 1.017-.452 1.912-.984 2.686a27.83 27.83 0 0 1-1.643 2.187c-.563.685-1.005 1.349-1.327 1.992-.317.628-.379 1.136-.186 1.525.374.756.242 1.292-.399 1.61l-3.544 1.756c-.283.14-.564.169-.841.084a1.084 1.084 0 0 1-.611-.56c-.448-.903-.67-1.787-.667-2.652.003-.865.165-1.619.487-2.262.317-.654.689-1.303 1.116-1.946.437-.648.855-1.216 1.255-1.702.932-1.154 1.19-2.152.773-2.992-.416-.84-1.014-1.322-1.795-1.445-.77-.128-1.78.117-3.029.736l-.803.399c-1.743.864-2.615 2.1-2.615 3.709.017 1.221-.448 2.066-1.393 2.534l-1.874.93c-.514.254-1.004.268-1.47.041a2.144 2.144 0 0 1-1.019-.986Zm13.545 11.493-.492-.992c-.344-.693-.417-1.317-.222-1.872.196-.555.625-.996 1.286-1.324l1.938-.96c.661-.328 1.272-.402 1.832-.222.56.18 1.012.617 1.356 1.31l.491.992c.333.672.405 1.29.214 1.856-.196.555-.625.996-1.286 1.324l-1.937.96c-.662.328-1.272.402-1.833.222-.565-.19-1.014-.622-1.347-1.294Z" fill="url(#e)"/><path d="M314.57 228.61c-.885-1.785-.708-3.697.531-5.737a12.116 12.116 0 0 1 5.079-4.675l1.811-.898c6.048-2.998 10.235-2.15 12.561 2.544.521 1.05.716 2.091.587 3.123-.124 1.016-.452 1.911-.984 2.685a28.284 28.284 0 0 1-1.643 2.187c-.563.685-1.006 1.349-1.328 1.992-.316.628-.378 1.136-.186 1.525.375.756.242 1.293-.399 1.61l-3.543 1.757a1.11 1.11 0 0 1-.842.083 1.081 1.081 0 0 1-.611-.56c-.447-.903-.67-1.787-.667-2.652.003-.864.166-1.619.488-2.262a16.49 16.49 0 0 1 1.115-1.946 22.37 22.37 0 0 1 1.256-1.701c.931-1.155 1.189-2.153.773-2.993-.417-.84-1.015-1.321-1.796-1.445-.77-.128-1.779.117-3.029.737l-.803.398c-1.743.864-2.615 2.1-2.615 3.709.017 1.221-.447 2.066-1.392 2.534l-1.874.929c-.515.255-1.005.269-1.471.042-.465-.227-.805-.555-1.018-.986Zm13.544 11.493-.492-.992c-.343-.693-.417-1.317-.221-1.872.196-.555.624-.996 1.286-1.324l1.937-.96c.661-.328 1.272-.402 1.832-.222.561.181 1.012.617 1.356 1.31l.492.992c.333.672.404 1.291.213 1.856-.196.555-.624.997-1.286 1.324l-1.937.961c-.661.327-1.272.401-1.832.221-.566-.19-1.015-.622-1.348-1.294Z" fill="url(#f)"/><path d="M14.712 156.633c-.918-1.767-.778-3.683.421-5.746a12.113 12.113 0 0 1 4.989-4.771l1.794-.933c5.99-3.112 10.192-2.345 12.607 2.303.54 1.04.756 2.077.646 3.111-.104 1.019-.415 1.92-.932 2.704a28 28 0 0 1-1.6 2.218c-.55.696-.98 1.368-1.29 2.018-.305.633-.357 1.142-.157 1.527.39.749.267 1.288-.368 1.618l-3.51 1.824c-.28.146-.56.179-.839.099a1.084 1.084 0 0 1-.622-.548c-.464-.894-.703-1.774-.717-2.639-.014-.864.134-1.621.444-2.271.304-.66.663-1.315 1.078-1.966.425-.657.832-1.232 1.223-1.726.91-1.172 1.148-2.174.715-3.006-.432-.832-1.04-1.302-1.822-1.411-.772-.113-1.777.151-3.015.794l-.795.414c-1.726.897-2.574 2.15-2.544 3.758.04 1.221-.407 2.075-1.343 2.561l-1.856.965c-.51.264-1 .288-1.47.07-.47-.218-.815-.54-1.037-.967Zm13.762 11.232-.51-.982c-.357-.687-.443-1.309-.258-1.868.185-.558.605-1.008 1.26-1.348l1.919-.997c.655-.341 1.264-.426 1.828-.257.563.17 1.023.597 1.38 1.284l.51.982c.346.666.43 1.283.25 1.852-.185.558-.606 1.008-1.26 1.348l-1.92.997c-.654.341-1.263.426-1.827.257-.569-.18-1.026-.602-1.372-1.268Z" fill="url(#g)"/><path d="M20.67 224.807c-.859-2.513-.293-5.01 1.7-7.491 2-2.501 4.51-4.268 7.526-5.299l2.55-.872c8.516-2.912 13.904-1.064 16.164 5.545.505 1.478.583 2.888.233 4.23-.341 1.322-.93 2.448-1.768 3.379a37.416 37.416 0 0 1-2.552 2.606c-.863.807-1.563 1.608-2.1 2.403-.528.775-.699 1.436-.512 1.983.364 1.064.096 1.751-.806 2.059l-4.99 1.707c-.4.136-.775.124-1.127-.036a1.447 1.447 0 0 1-.71-.847c-.435-1.271-.576-2.478-.422-3.621.155-1.143.5-2.111 1.038-2.906a22.231 22.231 0 0 1 1.812-2.379 29.864 29.864 0 0 1 1.956-2.031c1.432-1.365 1.946-2.639 1.541-3.821-.404-1.183-1.111-1.924-2.122-2.222-.995-.304-2.373-.155-4.132.447l-1.131.387c-2.454.839-3.821 2.322-4.101 4.449-.19 1.617-.95 2.653-2.281 3.108l-2.64.903c-.724.248-1.374.181-1.95-.2-.576-.381-.968-.875-1.175-1.481Zm15.91 17.547-.478-1.397c-.334-.976-.323-1.814.032-2.513.355-.7.998-1.209 1.93-1.527l2.728-.933c.931-.319 1.751-.31 2.46.025.71.336 1.231.991 1.565 1.967l.478 1.397c.323.946.31 1.777-.04 2.491-.356.699-.999 1.208-1.93 1.527l-2.728.933c-.931.318-1.752.31-2.461-.026-.714-.35-1.233-.998-1.557-1.944Z" fill="url(#h)"/><defs><linearGradient id="a" x1="175.431" y1="12.46" x2="178.012" y2="276.819" gradientUnits="userSpaceOnUse"><stop stop-color="#FFB75E"/><stop offset=".858" stop-color="#FFB75E" stop-opacity="0"/></linearGradient><linearGradient id="b" x1="296" y1="7" x2="295.781" y2="13.986" gradientUnits="userSpaceOnUse"><stop stop-color="#FFDCB1"/><stop offset=".506" stop-color="#FFB75E"/><stop offset="1" stop-color="#FFE2BF" stop-opacity="0"/></linearGradient><linearGradient id="c" x1="348.952" y1="138.255" x2="334.262" y2="166.533" gradientUnits="userSpaceOnUse"><stop stop-color="#FFB75E"/><stop offset="1" stop-color="#FFE5C5"/></linearGradient><linearGradient id="d" x1="27.985" y1="59.81" x2="19.821" y2="90.613" gradientUnits="userSpaceOnUse"><stop stop-color="#FFD9A9"/><stop offset="1" stop-color="#FFE5C5"/></linearGradient><linearGradient id="e" x1="331.322" y1="15.134" x2="345.474" y2="43.686" gradientUnits="userSpaceOnUse"><stop stop-color="#FFD9A9"/><stop offset="1" stop-color="#FFE5C5"/></linearGradient><linearGradient id="f" x1="315.566" y1="205.248" x2="334.368" y2="243.181" gradientUnits="userSpaceOnUse"><stop stop-color="#FFD9A9"/><stop offset="1" stop-color="#FFE5C5"/></linearGradient><linearGradient id="g" x1="15.261" y1="133.256" x2="29.957" y2="161.532" gradientUnits="userSpaceOnUse"><stop stop-color="#FFD9A9"/><stop offset="1" stop-color="#FFE5C5"/></linearGradient><linearGradient id="h" x1="26.046" y1="194.096" x2="39.745" y2="234.155" gradientUnits="userSpaceOnUse"><stop stop-color="#FFB75E"/><stop offset="1" stop-color="#FFE5C5"/></linearGradient></defs></svg>