<svg width="203" height="226" fill="none" xmlns="http://www.w3.org/2000/svg"><g filter="url(#a)"><path d="m98.833 5.652 64.079 35.542c2.007 1.113.865 4.178-1.381 3.706L57.966 23.145c-2.289-.48-3.401 2.686-1.314 3.742l136.44 69.055c2.087 1.057.975 4.223-1.314 3.742l-165.6-34.786c-2.326-.489-3.411 2.763-1.258 3.77l171.188 79.974c2.235 1.044.968 4.418-1.402 3.733L8.296 98.515c-2.373-.686-3.637 2.697-1.396 3.736l182.15 84.407-150.831-52.509c-2.266-.788-3.747 2.352-1.697 3.598l95.595 58.127c1.922 1.168.751 4.129-1.45 3.666L26.109 177.577c-2.3-.483-3.404 2.708-1.297 3.75l69.966 34.592c2.106 1.042 1.002 4.233-1.298 3.75l-55.148-11.584" stroke="#FFB75E" stroke-opacity=".9" stroke-width="3" stroke-linecap="round"/></g><defs><filter id="a" x=".222" y=".151" width="202.558" height="225.072" filterUnits="userSpaceOnUse" color-interpolation-filters="sRGB"><feFlood flood-opacity="0" result="BackgroundImageFix"/><feBlend in="SourceGraphic" in2="BackgroundImageFix" result="shape"/><feGaussianBlur stdDeviation="2" result="effect1_foregroundBlur_362_66136"/></filter></defs></svg>