<svg xmlns="http://www.w3.org/2000/svg" width="1920" height="390" fill="none"><g filter="url(#a)"><path fill="#FFB75E" d="M49.831 193.969-29 157.5V272l77.448 36.612c107.762 50.942 232.573 51.435 340.734 1.347l122.695-56.818a477.005 477.005 0 0 1 317.722-29.517l36.08 9.152a1029.996 1029.996 0 0 0 553.941-13.253l153.31-46.794c116.29-35.497 242.16-20.343 346.7 41.742L2016.5 272V157.5L1919 98.666c-104.14-62.844-229.95-78.873-346.52-44.15l-161.1 47.988a1029.998 1029.998 0 0 1-537.458 13.687L827.2 104.828a476.996 476.996 0 0 0-312.772 30.463l-127.217 58.77c-107.032 49.445-230.374 49.412-337.38-.092Z"/></g><path fill="#fff" d="m61.108 273.216 3.943-20.908c.083-.437.31-.782.683-1.037a1.602 1.602 0 0 1 1.247-.251l3.124.589c.436.082.776.308 1.02.679.254.372.34.777.257 1.214l-1.425 7.557 11.555 2.179 1.425-7.557c.082-.437.31-.782.682-1.037.373-.254.777-.34 1.214-.258l3.124.589c.459.087.81.315 1.053.686.254.372.34.777.258 1.214l-3.943 20.908a1.534 1.534 0 0 1-.7 1.033 1.59 1.59 0 0 1-1.21.242l-3.124-.589a1.628 1.628 0 0 1-1.042-.649 1.507 1.507 0 0 1-.262-1.197l1.628-8.632-11.554-2.179-1.628 8.632a1.506 1.506 0 0 1-.68 1.019c-.356.234-.753.31-1.19.228l-3.123-.589a1.648 1.648 0 0 1-1.057-.669 1.536 1.536 0 0 1-.275-1.217Zm33.428 6.339 7.231-15.193c1.963-4.14 6.092-5.622 12.386-4.446l9.052 1.707c.414.078.726.299.936.663.22.366.292.757.214 1.171l-3.956 20.975a1.51 1.51 0 0 1-.679 1.02 1.622 1.622 0 0 1-1.208.224l-3.157-.595c-.459-.087-.812-.304-1.06-.652-.234-.357-.308-.765-.221-1.224l.798-4.232-11.94-2.252-1.924 4.02a2.043 2.043 0 0 1-.971.999c-.447.217-.888.285-1.325.202l-3.308-.623c-.437-.083-.727-.265-.871-.547-.142-.294-.195-.536-.159-.726.047-.188.101-.352.162-.491Zm10.535-7.352 10.697 2.017 1.654-8.766-4.787-.903c-1.075-.203-2.073-.072-2.995.392-.909.454-1.601 1.17-2.075 2.147l-2.494 5.113Zm26.5 14.301 3.943-20.908c.082-.436.31-.782.682-1.036a1.558 1.558 0 0 1 1.214-.258l3.158.595c.436.082.777.303 1.022.662.257.362.344.761.262 1.198l-3.351 17.767 7.356 1.388 3.35-17.768c.083-.437.309-.777.68-1.02.37-.243.774-.324 1.21-.241l3.158.595a1.51 1.51 0 0 1 1.019.679c.255.373.341.778.258 1.214l-3.344 17.735 7.372 1.39 3.351-17.768a1.53 1.53 0 0 1 .663-1.023c.37-.243.774-.323 1.21-.241l3.158.595c.436.083.776.309 1.019.68.255.372.341.777.258 1.214l-3.943 20.908c-.082.436-.31.782-.682 1.036-.36.246-.757.327-1.194.245l-30.531-5.758a1.59 1.59 0 0 1-1.04-.666 1.565 1.565 0 0 1-.258-1.214Zm42.9 8.126 7.23-15.193c1.964-4.14 6.092-5.622 12.386-4.447l9.052 1.707c.415.078.727.3.936.664.221.366.292.756.214 1.17l-3.956 20.976a1.505 1.505 0 0 1-.679 1.02 1.624 1.624 0 0 1-1.207.224l-3.158-.595c-.459-.087-.812-.304-1.059-.652-.234-.358-.308-.766-.222-1.225l.799-4.232-11.941-2.252-1.923 4.02a2.054 2.054 0 0 1-.971 1c-.447.217-.889.284-1.325.202l-3.309-.624c-.436-.082-.727-.264-.87-.547-.142-.293-.195-.535-.159-.725.047-.188.101-.352.162-.491Zm10.534-7.353 10.698 2.018 1.653-8.767-4.786-.902c-1.075-.203-2.074-.073-2.996.391-.909.455-1.6 1.171-2.074 2.148l-2.495 5.112ZM447.919 235.966l-7.983-19.723a1.566 1.566 0 0 1 .014-1.241c.176-.415.481-.71.914-.886l2.947-1.192c.411-.167.82-.16 1.225.02.415.176.706.47.873.882l2.885 7.129 10.899-4.411-2.885-7.129a1.561 1.561 0 0 1 .014-1.241c.176-.415.47-.706.882-.873l2.946-1.192a1.545 1.545 0 0 1 1.257.007c.415.176.706.47.873.882l7.982 19.723c.167.412.157.828-.03 1.247-.18.405-.476.691-.888.858l-2.946 1.192a1.625 1.625 0 0 1-1.229.018 1.505 1.505 0 0 1-.866-.866l-3.296-8.143-10.899 4.411 3.296 8.143c.166.412.16.82-.021 1.225-.174.39-.467.668-.879.835l-2.946 1.192a1.65 1.65 0 0 1-1.25.009 1.535 1.535 0 0 1-.889-.876Zm31.551-12.732-2.127-16.691c-.586-4.544 2.087-8.023 8.018-10.435l8.539-3.456a1.314 1.314 0 0 1 1.146.052c.383.189.654.479.813.87l8.007 19.786c.167.412.16.82-.02 1.225a1.629 1.629 0 0 1-.895.842l-2.978 1.205c-.433.175-.848.183-1.244.024-.39-.174-.673-.478-.848-.911l-1.615-3.992-11.264 4.559.554 4.422c.07.475-.022.93-.276 1.365-.259.424-.594.72-1.006.887l-3.121 1.263c-.412.166-.754.17-1.028.01-.278-.17-.453-.345-.526-.525a3.107 3.107 0 0 1-.129-.5Zm4.89-11.88 10.091-4.084-3.347-8.269-4.514 1.827c-1.014.41-1.784 1.06-2.309 1.948-.519.874-.714 1.85-.585 2.929l.664 5.649Zm30.026-2.288-7.982-19.723a1.561 1.561 0 0 1 .014-1.241c.176-.416.47-.707.882-.873l2.978-1.206a1.537 1.537 0 0 1 1.219.005c.411.165.7.454.867.866l6.783 16.76 6.938-2.808-6.783-16.76c-.166-.412-.16-.82.021-1.225.18-.405.476-.691.888-.857l2.978-1.206c.412-.167.82-.16 1.225.021.416.176.707.47.873.881l6.771 16.729 6.954-2.814-6.783-16.761a1.53 1.53 0 0 1 .005-1.218c.18-.405.476-.691.888-.858l2.978-1.205c.412-.167.82-.16 1.225.02.416.176.707.47.873.882l7.982 19.723c.167.412.162.826-.014 1.241a1.53 1.53 0 0 1-.872.851l-28.8 11.656a1.598 1.598 0 0 1-1.235.002 1.567 1.567 0 0 1-.873-.882Zm40.487-16.349-2.128-16.69c-.585-4.545 2.088-8.023 8.019-10.436l8.538-3.455a1.31 1.31 0 0 1 1.146.052c.384.189.655.479.813.869l8.008 19.787c.166.412.16.82-.021 1.225a1.625 1.625 0 0 1-.894.841l-2.979 1.205c-.433.176-.847.184-1.244.025-.39-.174-.672-.478-.847-.911l-1.616-3.992-11.263 4.558.554 4.422c.069.476-.023.931-.277 1.366-.259.424-.594.719-1.006.886l-3.12 1.263c-.412.167-.755.17-1.029.011-.278-.171-.453-.345-.525-.525a2.943 2.943 0 0 1-.129-.501Zm4.889-11.879 10.092-4.084-3.347-8.27-4.515 1.828c-1.014.41-1.784 1.059-2.309 1.948-.519.874-.714 1.85-.585 2.928l.664 5.65ZM799.818 167.257l4.276-20.842a1.56 1.56 0 0 1 .699-1.026 1.607 1.607 0 0 1 1.251-.232l3.114.639c.435.09.772.321 1.009.696.248.376.328.782.238 1.218l-1.545 7.533 11.518 2.363 1.545-7.533a1.57 1.57 0 0 1 .699-1.026 1.562 1.562 0 0 1 1.218-.238l3.114.639c.457.093.805.328 1.042.702.248.377.328.782.239 1.218l-4.277 20.842a1.535 1.535 0 0 1-.715 1.022c-.375.238-.78.312-1.215.222l-3.114-.639a1.624 1.624 0 0 1-1.032-.665 1.506 1.506 0 0 1-.242-1.201l1.765-8.605-11.517-2.363-1.766 8.605a1.505 1.505 0 0 1-.695 1.008 1.565 1.565 0 0 1-1.195.209l-3.113-.639a1.65 1.65 0 0 1-1.046-.685 1.533 1.533 0 0 1-.255-1.222Zm33.322 6.872 7.472-15.075c2.029-4.108 6.181-5.524 12.456-4.248l9.023 1.851c.413.085.722.311.925.678.215.37.28.761.196 1.174l-4.29 20.91c-.09.435-.322.771-.696 1.009a1.626 1.626 0 0 1-1.211.205l-3.147-.646c-.458-.094-.808-.317-1.049-.669-.229-.361-.296-.77-.202-1.228l.866-4.218-11.903-2.442-1.988 3.988a2.043 2.043 0 0 1-.987.984c-.45.21-.892.27-1.328.181l-3.298-.677c-.435-.089-.722-.276-.862-.56-.137-.296-.186-.539-.147-.728.05-.188.107-.351.17-.489Zm10.651-7.183 10.664 2.188 1.793-8.739-4.772-.979c-1.071-.22-2.071-.105-3.001.344-.916.44-1.619 1.145-2.109 2.114l-2.575 5.072Zm26.268 14.723 4.277-20.842a1.56 1.56 0 0 1 .698-1.026 1.566 1.566 0 0 1 1.218-.239l3.148.646c.435.089.772.316 1.012.679.25.365.331.766.242 1.201L877.02 179.8l7.332 1.505 3.634-17.713a1.51 1.51 0 0 1 .696-1.008 1.593 1.593 0 0 1 1.214-.222l3.148.646c.435.089.771.321 1.008.695.249.377.328.783.239 1.218l-3.627 17.678 7.349 1.508 3.634-17.712a1.54 1.54 0 0 1 .679-1.012 1.593 1.593 0 0 1 1.214-.222l3.148.646c.435.089.771.321 1.008.695.249.377.328.783.239 1.218l-4.276 20.843c-.09.435-.323.777-.699 1.025-.363.24-.763.315-1.198.226l-30.435-6.245a1.589 1.589 0 0 1-1.029-.682 1.562 1.562 0 0 1-.239-1.218Zm42.765 8.809 7.472-15.075c2.029-4.108 6.181-5.524 12.456-4.248l9.023 1.851c.413.085.721.311.925.678.215.37.28.761.195 1.174l-4.29 20.91a1.507 1.507 0 0 1-.695 1.009 1.626 1.626 0 0 1-1.211.205l-3.148-.646c-.457-.094-.807-.317-1.049-.669-.228-.361-.295-.77-.201-1.227l.865-4.219-11.903-2.442-1.987 3.988a2.043 2.043 0 0 1-.987.984c-.45.21-.893.271-1.328.181l-3.298-.676c-.435-.09-.723-.277-.862-.561-.137-.296-.186-.538-.147-.728.05-.188.107-.35.17-.489Zm10.65-7.183 10.664 2.188 1.793-8.739-4.771-.979c-1.071-.219-2.072-.105-3.001.344-.916.44-1.619 1.145-2.109 2.114l-2.576 5.072ZM1167.24 217.196l-2.82-21.09c-.06-.441.05-.84.32-1.198a1.63 1.63 0 0 1 1.11-.631l3.15-.42c.44-.059.84.049 1.18.325.36.274.57.631.63 1.072l1.02 7.622 11.65-1.555-1.02-7.623c-.06-.44.05-.84.33-1.198.27-.358.63-.567 1.07-.626l3.15-.42c.46-.062.87.045 1.21.32.36.274.57.632.63 1.072l2.81 21.09c.06.44-.05.841-.34 1.2-.27.348-.63.551-1.07.609l-3.15.421a1.61 1.61 0 0 1-1.19-.289 1.508 1.508 0 0 1-.63-1.055l-1.16-8.707-11.65 1.555 1.16 8.707c.06.441-.05.835-.33 1.182-.26.334-.62.531-1.06.589l-3.15.421c-.44.059-.84-.043-1.21-.304a1.535 1.535 0 0 1-.64-1.069Zm33.73-4.467 2.1-16.694c.56-4.547 4.02-7.249 10.36-8.108l9.13-1.218c.42-.056.79.056 1.1.336.32.279.51.627.57 1.045l2.82 21.158c.06.44-.05.834-.32 1.181a1.64 1.64 0 0 1-1.08.592l-3.18.425c-.47.062-.87-.034-1.21-.287-.34-.266-.54-.63-.6-1.093l-.57-4.269-12.04 1.608-.57 4.42c-.05.478-.25.896-.61 1.253-.35.347-.75.549-1.19.608l-3.34.445c-.44.059-.77-.023-1-.246-.22-.234-.35-.447-.37-.639a2.227 2.227 0 0 1 0-.517Zm7.69-10.286 10.79-1.44-1.18-8.842-4.83.644c-1.08.145-1.99.582-2.72 1.312-.72.716-1.15 1.613-1.29 2.69l-.77 5.636Zm29.65 5.268-2.81-21.09c-.06-.441.05-.84.32-1.198a1.55 1.55 0 0 1 1.07-.626l3.19-.425c.44-.059.83.044 1.17.308.36.263.57.614.63 1.055l2.39 17.922 7.42-.99-2.39-17.922c-.06-.441.05-.835.32-1.182.28-.347.64-.55 1.08-.609l3.18-.425c.44-.058.84.05 1.18.325.36.274.57.632.63 1.072l2.39 17.888 7.43-.992-2.39-17.922c-.06-.441.04-.834.31-1.179.27-.347.63-.55 1.07-.609l3.19-.425c.44-.059.83.05 1.18.325.36.274.57.631.62 1.072l2.82 21.09c.06.44-.05.839-.32 1.198-.27.345-.62.548-1.06.606l-30.8 4.11c-.44.059-.84-.043-1.19-.306a1.566 1.566 0 0 1-.63-1.071Zm43.28-5.742 2.1-16.694c.57-4.547 4.03-7.249 10.37-8.108l9.13-1.218c.42-.056.78.056 1.1.336.32.279.51.627.57 1.045l2.82 21.158c.06.44-.05.834-.32 1.181a1.64 1.64 0 0 1-1.08.592l-3.18.425c-.47.062-.87-.034-1.21-.287-.34-.266-.54-.63-.6-1.093l-.57-4.269-12.04 1.607-.57 4.421c-.05.478-.25.896-.61 1.253-.35.347-.75.549-1.19.608l-3.34.445c-.44.059-.77-.023-1-.246-.22-.234-.35-.447-.38-.639a4.442 4.442 0 0 1 0-.517Zm7.7-10.286 10.79-1.44-1.18-8.842-4.83.644c-1.08.145-1.99.582-2.72 1.311-.72.717-1.15 1.614-1.29 2.691l-.77 5.636ZM1508.17 148.273l-5.14-20.645a1.56 1.56 0 0 1 .18-1.227c.24-.387.58-.637 1.03-.75l3.09-.768c.43-.108.83-.044 1.21.191.38.233.63.564.74.996l1.86 7.462 11.41-2.844-1.86-7.462a1.56 1.56 0 0 1 .18-1.227c.24-.386.57-.633 1-.741l3.08-.769c.46-.113.87-.052 1.25.184.38.232.63.564.74.995l5.14 20.645c.11.431.04.842-.2 1.231-.23.376-.57.617-1 .725l-3.08.768c-.43.108-.84.056-1.22-.154a1.498 1.498 0 0 1-.74-.979l-2.12-8.523-11.41 2.844 2.12 8.523c.11.431.05.835-.19 1.21-.23.362-.55.597-.99.704l-3.08.769c-.43.107-.84.052-1.24-.167-.4-.229-.65-.56-.76-.991Zm33.02-8.195.23-16.824c.06-4.582 3.19-7.652 9.4-9.212l8.94-2.227a1.32 1.32 0 0 1 1.13.212c.35.24.58.565.68.974l5.16 20.712c.11.431.05.834-.19 1.21-.24.365-.57.601-1 .708l-3.12.777c-.45.113-.87.063-1.24-.15-.36-.227-.59-.567-.71-1.02l-1.04-4.179-11.79 2.939-.07 4.455c0 .481-.15.919-.46 1.314-.32.384-.69.63-1.12.737l-3.27.814c-.43.108-.77.063-1.02-.133-.25-.208-.4-.405-.45-.593a5.8 5.8 0 0 1-.06-.514Zm6.51-11.079 10.56-2.633-2.16-8.656-4.72 1.178c-1.06.265-1.92.8-2.56 1.606-.64.793-.97 1.732-.99 2.818l-.13 5.687Zm30.05 1.933-5.15-20.646c-.1-.431-.04-.84.19-1.226.23-.387.57-.634 1-.741l3.11-.777c.43-.108.84-.05 1.21.174.38.222.63.548.74.979l4.37 17.545 7.26-1.811-4.37-17.544c-.11-.431-.04-.835.19-1.21a1.61 1.61 0 0 1 1-.725l3.12-.777c.43-.107.83-.044 1.21.192.39.232.63.564.74.995l4.36 17.511 7.28-1.814-4.37-17.545c-.11-.431-.05-.833.18-1.206.23-.375.56-.617 1-.724l3.11-.777c.43-.108.84-.044 1.21.191.39.233.64.564.74.995l5.15 20.646c.11.431.05.84-.19 1.227-.22.372-.55.613-.98.72l-30.15 7.514c-.43.107-.84.05-1.22-.171a1.557 1.557 0 0 1-.74-.995Zm42.37-10.526.23-16.824c.06-4.582 3.19-7.652 9.4-9.212l8.94-2.228c.41-.102.78-.03 1.13.213.35.24.58.565.68.974l5.16 20.712c.11.431.04.834-.19 1.21-.24.364-.57.6-1 .708l-3.12.777c-.45.113-.87.063-1.24-.15-.36-.227-.6-.567-.71-1.02l-1.04-4.179-11.79 2.938-.07 4.456c0 .481-.15.919-.47 1.314-.31.384-.68.629-1.11.737l-3.27.814c-.43.107-.77.063-1.02-.133-.25-.208-.4-.406-.45-.593a5.843 5.843 0 0 1-.06-.514Zm6.51-11.079 10.56-2.633-2.16-8.656-4.72 1.178c-1.06.264-1.92.8-2.56 1.606-.64.793-.97 1.732-.99 2.818l-.13 5.687ZM241.839 299.134l-4.361-20.86a1.508 1.508 0 0 1 .238-1.202 1.592 1.592 0 0 1 1.026-.686l3.145-.657a1.507 1.507 0 0 1 1.202.237c.378.247.612.588.703 1.023l3.693 17.665 11.241-2.35-3.7-17.698a1.536 1.536 0 0 1 .221-1.199 1.594 1.594 0 0 1 1.027-.686l3.161-.661a1.545 1.545 0 0 1 1.202.238c.378.247.612.588.703 1.023l3.693 17.665 1.806-.378a1.562 1.562 0 0 1 1.219.234c.378.247.612.588.703 1.023l.328 1.573a1.56 1.56 0 0 1-.234 1.218 1.588 1.588 0 0 1-1.026.686l-24.072 5.032a1.59 1.59 0 0 1-1.215-.217 1.562 1.562 0 0 1-.703-1.023Zm35.974-7.555-4.354-20.827a1.508 1.508 0 0 1 .237-1.202c.25-.366.592-.595 1.027-.686l19.287-4.032a1.508 1.508 0 0 1 1.202.238c.378.247.612.588.703 1.023l.329 1.572c.091.435.013.841-.234 1.219a1.53 1.53 0 0 1-1.01.682l-14.57 3.046 1.017 4.868 12.547-2.622a1.508 1.508 0 0 1 1.202.237c.375.236.608.571.699 1.006l.328 1.573a1.56 1.56 0 0 1-.234 1.218 1.534 1.534 0 0 1-1.009.683l-12.546 2.623 1.031 4.934 14.537-3.038a1.513 1.513 0 0 1 1.182.224c.364.238.591.575.682 1.01l.336 1.605c.091.435.013.842-.234 1.219a1.59 1.59 0 0 1-1.026.686l-19.205 4.015a1.601 1.601 0 0 1-1.924-1.274Zm29.933-6.048.892-16.947c.23-4.576 3.473-7.524 9.727-8.843l8.364-1.748c.39-.082.753.011 1.088.278.347.266.563.604.649 1.017l4.354 20.827c.091.435.018.84-.217 1.215a1.478 1.478 0 0 1-.993.679l-3.195.668c-.435.091-.84.018-1.216-.218a1.592 1.592 0 0 1-.686-1.026l-3.696-17.682-4.082.854c-1.07.223-1.943.726-2.618 1.507-.665.768-1.031 1.694-1.095 2.778l-.837 15.12a2.05 2.05 0 0 1-.515 1.295c-.33.372-.712.603-1.147.694l-3.396.71c-.39.081-.706.019-.947-.186-.23-.208-.362-.396-.397-.563a3.353 3.353 0 0 1-.037-.429Zm36.206-7.778-4.347-20.794c-.095-.457-.024-.867.214-1.231.238-.365.586-.594 1.043-.69l3.145-.657a1.507 1.507 0 0 1 1.202.237c.378.247.612.588.703 1.023l1.374 6.574 8.264-1.727c2.632-.55 4.952-.308 6.961.727 2.02 1.033 3.29 2.792 3.81 5.279s.061 4.608-1.376 6.364c-1.437 1.755-3.466 2.907-6.087 3.455l-13.065 2.731a1.467 1.467 0 0 1-1.168-.245 1.683 1.683 0 0 1-.673-1.046Zm5.653-4.447 8.263-1.727c1.874-.392 2.589-1.647 2.146-3.766-.445-2.13-1.604-3-3.478-2.608l-8.264 1.728 1.333 6.373ZM606.839 173.134l-4.361-20.86a1.508 1.508 0 0 1 .238-1.202 1.592 1.592 0 0 1 1.026-.686l3.145-.657a1.507 1.507 0 0 1 1.202.237c.378.247.612.588.703 1.023l3.693 17.665 11.241-2.35-3.7-17.698a1.536 1.536 0 0 1 .221-1.199 1.594 1.594 0 0 1 1.027-.686l3.161-.661a1.545 1.545 0 0 1 1.202.238c.378.247.612.588.703 1.023l3.693 17.665 1.806-.378a1.562 1.562 0 0 1 1.219.234c.378.247.612.588.703 1.023l.328 1.573a1.56 1.56 0 0 1-.234 1.218 1.588 1.588 0 0 1-1.026.686l-24.072 5.032a1.59 1.59 0 0 1-1.215-.217 1.562 1.562 0 0 1-.703-1.023Zm35.974-7.555-4.354-20.827a1.508 1.508 0 0 1 .237-1.202c.25-.366.592-.595 1.027-.686l19.287-4.032a1.508 1.508 0 0 1 1.202.238c.378.247.612.588.703 1.023l.329 1.572c.091.435.013.841-.234 1.219a1.53 1.53 0 0 1-1.01.682l-14.57 3.046 1.017 4.868 12.547-2.622a1.508 1.508 0 0 1 1.202.237c.375.236.608.571.699 1.006l.328 1.573a1.56 1.56 0 0 1-.234 1.218 1.534 1.534 0 0 1-1.009.683l-12.546 2.623 1.031 4.934 14.537-3.038a1.513 1.513 0 0 1 1.182.224c.364.238.591.575.682 1.01l.336 1.605c.091.435.013.842-.234 1.219a1.59 1.59 0 0 1-1.026.686l-19.205 4.015a1.601 1.601 0 0 1-1.924-1.274Zm29.933-6.048.892-16.947c.23-4.576 3.473-7.524 9.727-8.843l8.364-1.748c.39-.082.753.011 1.088.278.347.266.563.604.649 1.017l4.354 20.827c.091.435.018.84-.217 1.215a1.478 1.478 0 0 1-.993.679l-3.195.668c-.435.091-.84.018-1.216-.218a1.592 1.592 0 0 1-.686-1.026l-3.696-17.682-4.082.854c-1.07.223-1.943.726-2.618 1.507-.665.768-1.031 1.694-1.095 2.778l-.837 15.12a2.05 2.05 0 0 1-.515 1.295c-.33.372-.712.603-1.147.694l-3.396.71c-.39.081-.706.019-.947-.186-.23-.208-.362-.396-.397-.563a3.353 3.353 0 0 1-.037-.429Zm36.206-7.778-4.347-20.794c-.095-.457-.024-.867.214-1.231.238-.365.586-.594 1.043-.69l3.145-.657a1.507 1.507 0 0 1 1.202.237c.378.247.612.588.703 1.023l1.374 6.574 8.264-1.727c2.632-.55 4.952-.308 6.961.727 2.02 1.033 3.29 2.792 3.81 5.279s.061 4.608-1.376 6.364c-1.437 1.755-3.466 2.907-6.087 3.455l-13.065 2.731a1.467 1.467 0 0 1-1.168-.245 1.683 1.683 0 0 1-.673-1.046Zm5.653-4.447 8.263-1.727c1.874-.392 2.589-1.647 2.146-3.766-.445-2.13-1.604-3-3.478-2.608l-8.264 1.728 1.333 6.373ZM978.266 202.444l2.133-21.204c.044-.442.241-.801.589-1.075a1.588 1.588 0 0 1 1.185-.344l3.197.321c.442.045.8.241 1.074.589.286.35.406.745.362 1.187L985 199.875l11.427 1.149 1.809-17.99c.045-.442.235-.801.572-1.076a1.59 1.59 0 0 1 1.186-.345l3.216.323c.43.044.79.24 1.07.589.29.35.41.745.36 1.187l-1.8 17.957 1.83.184c.45.045.81.242 1.1.591.28.349.4.745.36 1.187l-.16 1.599c-.05.442-.25.805-.59 1.091a1.61 1.61 0 0 1-1.19.345l-24.469-2.461a1.593 1.593 0 0 1-1.093-.574 1.562 1.562 0 0 1-.362-1.187Zm36.574 3.644 2.13-21.17c.05-.442.24-.8.59-1.074.35-.275.74-.389 1.19-.345l19.6 1.972c.44.044.8.241 1.08.589.28.349.4.745.36 1.187l-.16 1.598a1.58 1.58 0 0 1-.59 1.092c-.34.275-.73.391-1.17.346l-14.81-1.489-.5 4.948 12.75 1.282c.45.045.8.241 1.08.589.28.338.41.728.36 1.17l-.16 1.599c-.04.442-.24.806-.59 1.091-.34.276-.73.391-1.17.346l-12.75-1.282-.51 5.016 14.78 1.486c.43.044.78.234 1.06.57.27.337.39.727.35 1.169l-.17 1.632c-.04.442-.24.806-.59 1.092-.35.274-.74.389-1.18.344l-19.53-1.963c-.44-.045-.8-.236-1.09-.574-.28-.349-.4-.756-.36-1.221Zm30.37 3.26 5.96-15.89c1.6-4.293 5.58-6.126 11.94-5.497l8.5.855c.4.04.72.238.95.594.25.357.36.745.32 1.165l-2.13 21.17c-.05.442-.24.806-.58 1.093-.32.276-.71.392-1.15.348l-3.25-.327c-.44-.044-.8-.235-1.09-.573a1.585 1.585 0 0 1-.34-1.186l1.8-17.973-4.14-.417c-1.09-.11-2.08.106-2.96.648-.86.531-1.49 1.304-1.88 2.318l-5.36 14.164c-.16.453-.45.813-.88 1.079-.42.255-.86.36-1.3.316l-3.45-.347c-.4-.04-.68-.195-.85-.464-.15-.267-.22-.486-.21-.656.03-.169.06-.309.1-.42Zm36.86 3.502 2.13-21.136c.05-.465.24-.835.57-1.11.34-.276.74-.39 1.21-.343l3.19.321c.45.045.8.241 1.08.589.28.35.4.745.36 1.187l-.67 6.683 8.4.845c2.67.269 4.81 1.2 6.42 2.792 1.61 1.594 2.29 3.655 2.04 6.183-.26 2.528-1.34 4.412-3.23 5.652-1.9 1.24-4.19 1.727-6.85 1.459l-13.28-1.336a1.456 1.456 0 0 1-1.04-.586 1.716 1.716 0 0 1-.33-1.2Zm6.73-2.535 8.4.845c1.91.191 2.97-.79 3.19-2.944.21-2.165-.63-3.343-2.53-3.535l-8.4-.845-.66 6.479ZM1334.02 191.129l-5.06-20.7c-.11-.432-.04-.835.19-1.21.24-.374.57-.614 1.01-.72l3.12-.763c.43-.106.83-.04 1.21.197.38.234.63.567.73.998l4.29 17.53 11.16-2.728-4.3-17.563c-.1-.432-.04-.834.18-1.206.24-.374.57-.614 1-.72l3.14-.767c.42-.103.83-.037 1.21.197.39.234.63.567.74.998l4.28 17.53 1.8-.438c.43-.106.84-.041 1.22.193.39.234.63.567.74.998l.38 1.561c.11.431.04.84-.19 1.226-.24.374-.57.614-1 .72l-23.89 5.842c-.43.106-.84.047-1.22-.176a1.567 1.567 0 0 1-.74-.999Zm35.7-8.765-5.06-20.668c-.1-.432-.04-.835.2-1.209.24-.375.57-.615 1-.72l19.14-4.682c.43-.105.84-.04 1.21.197.39.234.63.567.74.999l.38 1.56c.11.432.04.841-.19 1.226-.23.372-.56.611-.99.716l-14.46 3.537 1.18 4.83 12.45-3.045c.44-.105.84-.04 1.21.197.39.223.63.551.74.982l.38 1.561c.1.431.04.84-.19 1.226-.23.371-.56.61-.99.716l-12.45 3.045 1.2 4.897 14.42-3.528c.42-.103.82-.042 1.19.184s.61.555.72.986l.39 1.594c.1.431.04.84-.2 1.226-.23.374-.57.614-1 .72l-19.06 4.661a1.595 1.595 0 0 1-1.96-1.208Zm29.71-7.056.32-16.967c.07-4.582 3.22-7.637 9.42-9.166l8.3-2.03c.39-.095.75-.014 1.1.242.35.253.58.584.68.994l5.06 20.667c.1.432.04.839-.18 1.222-.21.369-.54.607-.97.712l-3.17.776c-.43.105-.84.047-1.22-.176a1.553 1.553 0 0 1-.72-1.003l-4.29-17.547-4.05.991c-1.07.26-1.92.791-2.57 1.595-.64.79-.97 1.728-1 2.813l-.33 15.14c0 .481-.15.918-.47 1.312-.31.382-.69.626-1.12.732l-3.37.824c-.39.095-.71.043-.95-.154-.24-.2-.38-.383-.42-.549a2.597 2.597 0 0 1-.05-.428Zm35.92-8.996-5.04-20.635c-.12-.454-.06-.866.17-1.238.22-.372.56-.614 1.02-.725l3.12-.763c.43-.105.83-.04 1.21.197.38.234.63.567.73.999l1.6 6.524 8.2-2.006c2.61-.639 4.94-.475 6.98.492 2.06.964 3.38 2.679 3.99 5.147.6 2.468.21 4.604-1.16 6.407-1.38 1.803-3.37 3.022-5.97 3.658l-12.96 3.171c-.41.1-.81.032-1.18-.205-.37-.251-.6-.592-.71-1.023Zm5.5-4.635 8.2-2.006c1.86-.454 2.53-1.733 2.02-3.836-.52-2.114-1.71-2.943-3.56-2.489l-8.21 2.006 1.55 6.325ZM1669.84 111.824l-2.59-21.154a1.52 1.52 0 0 1 .34-1.177c.28-.344.64-.543 1.08-.597l3.19-.39c.44-.053.84.06 1.18.339.35.278.56.638.61 1.079l2.19 17.914 11.4-1.392-2.19-17.948c-.06-.441.05-.833.32-1.175.28-.344.64-.543 1.08-.597l3.21-.392c.43-.052.82.06 1.17.339.36.278.56.637.62 1.078l2.18 17.914 1.84-.223c.44-.054.84.058 1.19.336.36.278.56.637.62 1.078l.19 1.595c.05.441-.06.839-.34 1.195a1.59 1.59 0 0 1-1.08.596l-24.41 2.98a1.58 1.58 0 0 1-1.19-.319 1.528 1.528 0 0 1-.61-1.079Zm36.48-4.488-2.58-21.12a1.52 1.52 0 0 1 .34-1.177c.28-.344.64-.543 1.08-.597l19.56-2.388c.44-.054.83.06 1.18.339.35.278.56.637.61 1.078l.2 1.595c.05.44-.06.84-.34 1.194-.27.343-.62.541-1.06.595l-14.78 1.804.6 4.936 12.73-1.553c.44-.054.83.06 1.17.338.36.267.56.621.61 1.062l.2 1.595c.05.44-.06.839-.34 1.194-.27.343-.62.541-1.06.595l-12.72 1.553.61 5.004 14.74-1.799c.43-.053.81.055 1.16.323.34.268.54.623.59 1.064l.2 1.629c.05.441-.06.839-.34 1.194-.27.344-.64.543-1.08.597l-19.47 2.377a1.58 1.58 0 0 1-1.19-.319c-.36-.278-.56-.649-.62-1.113Zm30.34-3.496 2.32-16.812c.61-4.54 4.09-7.203 10.44-7.989l8.48-1.035c.39-.048.75.075 1.06.37.32.293.51.65.56 1.068l2.58 21.12c.05.441-.05.838-.32 1.192-.26.341-.61.539-1.05.593l-3.24.395a1.58 1.58 0 0 1-1.19-.319c-.34-.279-.54-.64-.6-1.081l-2.19-17.93-4.14.505c-1.08.132-1.99.56-2.73 1.28-.73.71-1.17 1.601-1.33 2.676l-2.11 14.996c-.06.477-.26.893-.62 1.246-.36.343-.76.541-1.2.595l-3.45.42c-.39.048-.7-.04-.92-.266-.22-.226-.33-.424-.35-.594a3.057 3.057 0 0 1 0-.43Zm36.73-4.691-2.57-21.086c-.06-.464.05-.867.31-1.21.27-.342.64-.542 1.1-.599l3.19-.389c.44-.054.83.059 1.18.338.35.278.56.638.61 1.079l.82 6.667 8.38-1.023c2.66-.326 4.96.112 6.87 1.313 1.93 1.2 3.04 3.06 3.35 5.582.31 2.522-.33 4.597-1.91 6.225-1.58 1.627-3.7 2.603-6.36 2.928l-13.24 1.617c-.42.051-.8-.063-1.15-.342-.33-.292-.53-.66-.58-1.1Zm6.01-3.953 8.38-1.023c1.9-.232 2.72-1.422 2.46-3.571-.27-2.16-1.35-3.124-3.25-2.892l-8.38 1.023.79 6.463Z"/><defs><filter id="a" width="2113.5" height="378.637" x="-63" y="10.538" color-interpolation-filters="sRGB" filterUnits="userSpaceOnUse"><feFlood flood-opacity="0" result="BackgroundImageFix"/><feColorMatrix in="SourceAlpha" result="hardAlpha" values="0 0 0 0 0 0 0 0 0 0 0 0 0 0 0 0 0 0 127 0"/><feOffset dy="8"/><feGaussianBlur stdDeviation="17"/><feComposite in2="hardAlpha" operator="out"/><feColorMatrix values="0 0 0 0 0 0 0 0 0 0 0 0 0 0 0 0 0 0 0.17 0"/><feBlend in2="BackgroundImageFix" result="effect1_dropShadow_362_66319"/><feBlend in="SourceGraphic" in2="effect1_dropShadow_362_66319" result="shape"/><feColorMatrix in="SourceAlpha" result="hardAlpha" values="0 0 0 0 0 0 0 0 0 0 0 0 0 0 0 0 0 0 127 0"/><feOffset dy="7"/><feGaussianBlur stdDeviation="8"/><feComposite in2="hardAlpha" k2="-1" k3="1" operator="arithmetic"/><feColorMatrix values="0 0 0 0 1 0 0 0 0 1 0 0 0 0 1 0 0 0 0.51 0"/><feBlend in2="shape" result="effect2_innerShadow_362_66319"/></filter></defs></svg>