<svg width="1920" height="390" viewBox="0 0 1920 390" fill="none" xmlns="http://www.w3.org/2000/svg">
<g filter="url(#filter0_di_362_66319)">
<path d="M49.8314 193.969L-29 157.5V272L48.4484 308.612C156.21 359.554 281.021 360.047 389.182 309.959L511.877 253.141C611.256 207.12 723.444 196.698 829.599 223.624L865.679 232.776C1048.07 279.04 1239.65 274.457 1419.62 219.523L1572.93 172.729C1689.22 137.232 1815.09 152.386 1919.63 214.471L2016.5 272V157.5L1919 98.6664C1814.86 35.822 1689.05 19.793 1572.48 54.5168L1411.38 102.504C1236.6 154.567 1051.13 159.29 873.922 116.191L827.2 104.828C722.494 79.3619 612.252 90.0991 514.428 135.291L387.211 194.061C280.179 243.506 156.837 243.473 49.8314 193.969Z" fill="#FFB75E"/>
</g>
<path d="M61.1082 273.216L65.0513 252.308C65.1336 251.871 65.3611 251.526 65.7337 251.271C66.1063 251.017 66.5221 250.933 66.9811 251.02L70.1048 251.609C70.5414 251.691 70.8813 251.917 71.1245 252.288C71.3789 252.66 71.4649 253.065 71.3825 253.502L69.9573 261.059L81.5115 263.238L82.9367 255.681C83.019 255.244 83.2465 254.899 83.6191 254.644C83.9917 254.39 84.3963 254.304 84.833 254.386L87.9566 254.975C88.4156 255.062 88.7667 255.29 89.0099 255.661C89.2643 256.033 89.3503 256.438 89.2679 256.875L85.3249 277.783C85.2425 278.22 85.0095 278.564 84.6257 278.816C84.2552 279.06 83.8516 279.14 83.415 279.058L80.2913 278.469C79.8547 278.386 79.5071 278.17 79.2485 277.82C78.992 277.458 78.9049 277.059 78.9873 276.623L80.6152 267.991L69.061 265.812L67.4331 274.444C67.3508 274.88 67.1244 275.22 66.7539 275.463C66.3967 275.697 65.9998 275.773 65.5632 275.691L62.4395 275.102C62.0029 275.02 61.6507 274.797 61.383 274.433C61.1175 274.058 61.0259 273.653 61.1082 273.216ZM94.5363 279.555L101.767 264.362C103.73 260.222 107.859 258.74 114.153 259.916L123.205 261.623C123.619 261.701 123.931 261.922 124.141 262.286C124.361 262.652 124.433 263.043 124.355 263.457L120.399 284.432C120.316 284.869 120.09 285.209 119.72 285.452C119.351 285.684 118.949 285.759 118.512 285.676L115.355 285.081C114.896 284.994 114.543 284.777 114.295 284.429C114.061 284.072 113.987 283.664 114.074 283.205L114.872 278.973L102.932 276.721L101.008 280.741C100.81 281.179 100.486 281.512 100.037 281.74C99.5905 281.957 99.1488 282.025 98.7121 281.942L95.4037 281.319C94.9671 281.236 94.6768 281.054 94.533 280.772C94.3912 280.478 94.3383 280.236 94.3742 280.046C94.4212 279.858 94.4753 279.694 94.5363 279.555ZM105.071 272.203L115.768 274.22L117.422 265.454L112.635 264.551C111.56 264.348 110.562 264.479 109.64 264.943C108.731 265.397 108.039 266.113 107.565 267.09L105.071 272.203ZM131.571 286.504L135.514 265.596C135.596 265.16 135.824 264.814 136.196 264.56C136.569 264.305 136.974 264.219 137.41 264.302L140.568 264.897C141.004 264.979 141.345 265.2 141.59 265.559C141.847 265.921 141.934 266.32 141.852 266.757L138.501 284.524L145.857 285.912L149.207 268.144C149.29 267.707 149.516 267.367 149.887 267.124C150.257 266.881 150.661 266.8 151.097 266.883L154.255 267.478C154.691 267.561 155.031 267.787 155.274 268.157C155.529 268.53 155.615 268.935 155.532 269.371L152.188 287.106L159.56 288.496L162.911 270.728C162.993 270.291 163.214 269.95 163.574 269.705C163.944 269.462 164.348 269.382 164.784 269.464L167.942 270.059C168.378 270.142 168.718 270.368 168.961 270.739C169.216 271.111 169.302 271.516 169.219 271.953L165.276 292.861C165.194 293.297 164.966 293.643 164.594 293.897C164.234 294.143 163.837 294.224 163.4 294.142L132.869 288.384C132.432 288.302 132.086 288.08 131.829 287.718C131.575 287.346 131.489 286.941 131.571 286.504ZM174.471 294.63L181.701 279.437C183.665 275.297 187.793 273.815 194.087 274.99L203.139 276.697C203.554 276.775 203.866 276.997 204.075 277.361C204.296 277.727 204.367 278.117 204.289 278.531L200.333 299.507C200.251 299.944 200.025 300.283 199.654 300.527C199.286 300.759 198.883 300.833 198.447 300.751L195.289 300.156C194.83 300.069 194.477 299.852 194.23 299.504C193.996 299.146 193.922 298.738 194.008 298.279L194.807 294.047L182.866 291.795L180.943 295.815C180.744 296.253 180.421 296.586 179.972 296.815C179.525 297.032 179.083 297.099 178.647 297.017L175.338 296.393C174.902 296.311 174.611 296.129 174.468 295.846C174.326 295.553 174.273 295.311 174.309 295.121C174.356 294.933 174.41 294.769 174.471 294.63ZM185.005 287.277L195.703 289.295L197.356 280.528L192.57 279.626C191.495 279.423 190.496 279.553 189.574 280.017C188.665 280.472 187.974 281.188 187.5 282.165L185.005 287.277Z" fill="white"/>
<path d="M447.919 235.966L439.936 216.243C439.77 215.831 439.774 215.418 439.95 215.002C440.126 214.587 440.431 214.292 440.864 214.116L443.811 212.924C444.222 212.757 444.631 212.764 445.036 212.944C445.451 213.12 445.742 213.414 445.909 213.826L448.794 220.955L459.693 216.544L456.808 209.415C456.641 209.003 456.646 208.59 456.822 208.174C456.998 207.759 457.292 207.468 457.704 207.301L460.65 206.109C461.083 205.933 461.502 205.936 461.907 206.116C462.322 206.292 462.613 206.586 462.78 206.998L470.762 226.721C470.929 227.133 470.919 227.549 470.732 227.968C470.552 228.373 470.256 228.659 469.844 228.826L466.898 230.018C466.486 230.185 466.076 230.191 465.669 230.036C465.258 229.87 464.969 229.582 464.803 229.17L461.507 221.027L450.608 225.438L453.904 233.581C454.07 233.993 454.064 234.401 453.883 234.806C453.709 235.196 453.416 235.474 453.004 235.641L450.058 236.833C449.646 237 449.229 237.003 448.808 236.842C448.382 236.67 448.085 236.378 447.919 235.966ZM479.47 223.234L477.343 206.543C476.757 201.999 479.43 198.52 485.361 196.108L493.9 192.652C494.291 192.494 494.673 192.511 495.046 192.704C495.429 192.893 495.7 193.183 495.859 193.574L503.866 213.36C504.033 213.772 504.026 214.18 503.846 214.585C503.661 214.979 503.363 215.26 502.951 215.427L499.973 216.632C499.54 216.807 499.125 216.815 498.729 216.656C498.339 216.482 498.056 216.178 497.881 215.745L496.266 211.753L485.002 216.312L485.556 220.734C485.626 221.209 485.534 221.664 485.28 222.099C485.021 222.523 484.686 222.819 484.274 222.986L481.153 224.249C480.741 224.415 480.399 224.419 480.125 224.259C479.847 224.089 479.672 223.914 479.599 223.734C479.537 223.551 479.494 223.384 479.47 223.234ZM484.36 211.354L494.451 207.27L491.104 199.001L486.59 200.828C485.576 201.238 484.806 201.888 484.281 202.776C483.762 203.65 483.567 204.626 483.696 205.705L484.36 211.354ZM514.386 209.066L506.404 189.343C506.237 188.931 506.242 188.517 506.418 188.102C506.594 187.686 506.888 187.395 507.3 187.229L510.278 186.023C510.69 185.857 511.096 185.858 511.497 186.028C511.908 186.193 512.197 186.482 512.364 186.894L519.147 203.654L526.085 200.846L519.302 184.086C519.136 183.674 519.142 183.266 519.323 182.861C519.503 182.456 519.799 182.17 520.211 182.004L523.189 180.798C523.601 180.631 524.009 180.638 524.414 180.819C524.83 180.995 525.121 181.289 525.287 181.7L532.058 198.429L539.012 195.615L532.229 178.854C532.062 178.442 532.064 178.036 532.234 177.636C532.414 177.231 532.71 176.945 533.122 176.778L536.1 175.573C536.512 175.406 536.92 175.413 537.325 175.593C537.741 175.769 538.032 176.063 538.198 176.475L546.18 196.198C546.347 196.61 546.342 197.024 546.166 197.439C545.997 197.84 545.706 198.123 545.294 198.29L516.494 209.946C516.082 210.112 515.671 210.113 515.259 209.948C514.844 209.771 514.553 209.478 514.386 209.066ZM554.873 192.717L552.745 176.027C552.16 171.482 554.833 168.004 560.764 165.591L569.302 162.136C569.693 161.977 570.075 161.995 570.448 162.188C570.832 162.377 571.103 162.667 571.261 163.057L579.269 182.844C579.435 183.256 579.429 183.664 579.248 184.069C579.064 184.463 578.765 184.743 578.354 184.91L575.375 186.115C574.942 186.291 574.528 186.299 574.131 186.14C573.741 185.966 573.459 185.662 573.284 185.229L571.668 181.237L560.405 185.795L560.959 190.217C561.028 190.693 560.936 191.148 560.682 191.583C560.423 192.007 560.088 192.302 559.676 192.469L556.556 193.732C556.144 193.899 555.801 193.902 555.527 193.743C555.249 193.572 555.074 193.398 555.002 193.218C554.939 193.034 554.896 192.867 554.873 192.717ZM559.762 180.838L569.854 176.754L566.507 168.484L561.992 170.312C560.978 170.722 560.208 171.371 559.683 172.26C559.164 173.134 558.969 174.11 559.098 175.188L559.762 180.838Z" fill="white"/>
<path d="M799.818 167.257L804.094 146.415C804.183 145.979 804.416 145.638 804.793 145.389C805.169 145.141 805.587 145.064 806.044 145.157L809.158 145.796C809.593 145.886 809.93 146.117 810.167 146.492C810.415 146.868 810.495 147.274 810.405 147.71L808.86 155.243L820.378 157.606L821.923 150.073C822.013 149.638 822.246 149.296 822.622 149.047C822.999 148.799 823.405 148.719 823.84 148.809L826.954 149.448C827.411 149.541 827.759 149.776 827.996 150.15C828.244 150.527 828.324 150.932 828.235 151.368L823.958 172.21C823.869 172.646 823.63 172.986 823.243 173.232C822.868 173.47 822.463 173.544 822.028 173.454L818.914 172.815C818.479 172.726 818.135 172.504 817.882 172.15C817.631 171.785 817.551 171.384 817.64 170.949L819.405 162.344L807.888 159.981L806.122 168.586C806.033 169.021 805.801 169.357 805.427 169.594C805.066 169.823 804.668 169.892 804.232 169.803L801.119 169.164C800.683 169.075 800.335 168.846 800.073 168.479C799.813 168.1 799.728 167.693 799.818 167.257ZM833.14 174.129L840.612 159.054C842.641 154.946 846.793 153.53 853.068 154.806L862.091 156.657C862.504 156.742 862.813 156.968 863.016 157.335C863.231 157.705 863.296 158.096 863.212 158.509L858.922 179.419C858.832 179.854 858.6 180.19 858.226 180.428C857.854 180.654 857.45 180.722 857.015 180.633L853.868 179.987C853.41 179.893 853.06 179.67 852.819 179.318C852.59 178.957 852.523 178.548 852.617 178.09L853.483 173.872L841.58 171.43L839.592 175.418C839.387 175.853 839.058 176.181 838.605 176.402C838.155 176.612 837.713 176.672 837.277 176.583L833.979 175.906C833.544 175.817 833.257 175.63 833.117 175.346C832.98 175.05 832.931 174.807 832.97 174.618C833.02 174.43 833.077 174.267 833.14 174.129ZM843.791 166.946L854.455 169.134L856.248 160.395L851.476 159.416C850.405 159.196 849.405 159.311 848.475 159.76C847.559 160.2 846.856 160.905 846.366 161.874L843.791 166.946ZM870.059 181.669L874.336 160.827C874.425 160.391 874.658 160.049 875.034 159.801C875.411 159.553 875.817 159.473 876.252 159.562L879.4 160.208C879.835 160.297 880.172 160.524 880.412 160.887C880.662 161.252 880.743 161.653 880.654 162.088L877.02 179.8L884.352 181.305L887.986 163.592C888.076 163.157 888.308 162.821 888.682 162.584C889.056 162.347 889.461 162.273 889.896 162.362L893.044 163.008C893.479 163.097 893.815 163.329 894.052 163.703C894.301 164.08 894.38 164.486 894.291 164.921L890.664 182.599L898.013 184.107L901.647 166.395C901.737 165.96 901.963 165.623 902.326 165.383C902.7 165.146 903.105 165.072 903.54 165.161L906.688 165.807C907.123 165.896 907.459 166.128 907.696 166.502C907.945 166.879 908.024 167.285 907.935 167.72L903.659 188.563C903.569 188.998 903.336 189.34 902.96 189.588C902.597 189.828 902.197 189.903 901.762 189.814L871.327 183.569C870.891 183.48 870.548 183.252 870.298 182.887C870.049 182.51 869.97 182.104 870.059 181.669ZM912.824 190.478L920.296 175.403C922.325 171.295 926.477 169.879 932.752 171.155L941.775 173.006C942.188 173.091 942.496 173.317 942.7 173.684C942.915 174.054 942.98 174.445 942.895 174.858L938.605 195.768C938.516 196.203 938.284 196.54 937.91 196.777C937.538 197.003 937.134 197.071 936.699 196.982L933.551 196.336C933.094 196.242 932.744 196.019 932.502 195.667C932.274 195.306 932.207 194.897 932.301 194.44L933.166 190.221L921.263 187.779L919.276 191.767C919.071 192.202 918.742 192.53 918.289 192.751C917.839 192.961 917.396 193.022 916.961 192.932L913.663 192.256C913.228 192.166 912.94 191.979 912.801 191.695C912.664 191.399 912.615 191.157 912.654 190.967C912.704 190.779 912.761 190.617 912.824 190.478ZM923.474 183.295L934.138 185.483L935.931 176.744L931.16 175.765C930.089 175.546 929.088 175.66 928.159 176.109C927.243 176.549 926.54 177.254 926.05 178.223L923.474 183.295Z" fill="white"/>
<path d="M1167.24 217.196L1164.42 196.106C1164.36 195.665 1164.47 195.266 1164.74 194.908C1165.02 194.549 1165.39 194.339 1165.85 194.277L1169 193.857C1169.44 193.798 1169.84 193.906 1170.18 194.182C1170.54 194.456 1170.75 194.813 1170.81 195.254L1171.83 202.876L1183.48 201.321L1182.46 193.698C1182.4 193.258 1182.51 192.858 1182.79 192.5C1183.06 192.142 1183.42 191.933 1183.86 191.874L1187.01 191.454C1187.47 191.392 1187.88 191.499 1188.22 191.774C1188.58 192.048 1188.79 192.406 1188.85 192.846L1191.66 213.936C1191.72 214.376 1191.61 214.777 1191.32 215.136C1191.05 215.484 1190.69 215.687 1190.25 215.745L1187.1 216.166C1186.66 216.225 1186.26 216.128 1185.91 215.877C1185.55 215.614 1185.34 215.263 1185.28 214.822L1184.12 206.115L1172.47 207.67L1173.63 216.377C1173.69 216.818 1173.58 217.212 1173.3 217.559C1173.04 217.893 1172.68 218.09 1172.24 218.148L1169.09 218.569C1168.65 218.628 1168.25 218.526 1167.88 218.265C1167.51 217.993 1167.3 217.636 1167.24 217.196ZM1200.97 212.729L1203.07 196.035C1203.63 191.488 1207.09 188.786 1213.43 187.927L1222.56 186.709C1222.98 186.653 1223.35 186.765 1223.66 187.045C1223.98 187.324 1224.17 187.672 1224.23 188.09L1227.05 209.248C1227.11 209.688 1227 210.082 1226.73 210.429C1226.45 210.765 1226.09 210.962 1225.65 211.021L1222.47 211.446C1222 211.508 1221.6 211.412 1221.26 211.159C1220.92 210.893 1220.72 210.529 1220.66 210.066L1220.09 205.797L1208.05 207.405L1207.48 211.825C1207.43 212.303 1207.23 212.721 1206.87 213.078C1206.52 213.425 1206.12 213.627 1205.68 213.686L1202.34 214.131C1201.9 214.19 1201.57 214.108 1201.34 213.885C1201.12 213.651 1200.99 213.438 1200.97 213.246C1200.95 213.053 1200.95 212.88 1200.97 212.729ZM1208.66 202.443L1219.45 201.003L1218.27 192.161L1213.44 192.805C1212.36 192.95 1211.45 193.387 1210.72 194.117C1210 194.833 1209.57 195.73 1209.43 196.807L1208.66 202.443ZM1238.31 207.711L1235.5 186.621C1235.44 186.18 1235.55 185.781 1235.82 185.423C1236.09 185.064 1236.45 184.856 1236.89 184.797L1240.08 184.372C1240.52 184.313 1240.91 184.416 1241.25 184.68C1241.61 184.943 1241.82 185.294 1241.88 185.735L1244.27 203.657L1251.69 202.667L1249.3 184.745C1249.24 184.304 1249.35 183.91 1249.62 183.563C1249.9 183.216 1250.26 183.013 1250.7 182.954L1253.88 182.529C1254.32 182.471 1254.72 182.579 1255.06 182.854C1255.42 183.128 1255.63 183.486 1255.69 183.926L1258.08 201.814L1265.51 200.822L1263.12 182.9C1263.06 182.459 1263.16 182.066 1263.43 181.721C1263.7 181.374 1264.06 181.171 1264.5 181.112L1267.69 180.687C1268.13 180.628 1268.52 180.737 1268.87 181.012C1269.23 181.286 1269.44 181.643 1269.49 182.084L1272.31 203.174C1272.37 203.614 1272.26 204.013 1271.99 204.372C1271.72 204.717 1271.37 204.92 1270.93 204.978L1240.13 209.088C1239.69 209.147 1239.29 209.045 1238.94 208.782C1238.58 208.508 1238.37 208.151 1238.31 207.711ZM1281.59 201.969L1283.69 185.275C1284.26 180.728 1287.72 178.026 1294.06 177.167L1303.19 175.949C1303.61 175.893 1303.97 176.005 1304.29 176.285C1304.61 176.564 1304.8 176.912 1304.86 177.33L1307.68 198.488C1307.74 198.928 1307.63 199.322 1307.36 199.669C1307.08 200.005 1306.72 200.202 1306.28 200.261L1303.1 200.686C1302.63 200.748 1302.23 200.652 1301.89 200.399C1301.55 200.133 1301.35 199.769 1301.29 199.306L1300.72 195.037L1288.68 196.644L1288.11 201.065C1288.06 201.543 1287.86 201.961 1287.5 202.318C1287.15 202.665 1286.75 202.867 1286.31 202.926L1282.97 203.371C1282.53 203.43 1282.2 203.348 1281.97 203.125C1281.75 202.891 1281.62 202.678 1281.59 202.486C1281.58 202.293 1281.58 202.12 1281.59 201.969ZM1289.29 191.683L1300.08 190.243L1298.9 181.401L1294.07 182.045C1292.99 182.19 1292.08 182.627 1291.35 183.356C1290.63 184.073 1290.2 184.97 1290.06 186.047L1289.29 191.683Z" fill="white"/>
<path d="M1508.17 148.273L1503.03 127.628C1502.92 127.197 1502.98 126.788 1503.21 126.401C1503.45 126.014 1503.79 125.764 1504.24 125.651L1507.33 124.883C1507.76 124.775 1508.16 124.839 1508.54 125.074C1508.92 125.307 1509.17 125.638 1509.28 126.07L1511.14 133.532L1522.55 130.688L1520.69 123.226C1520.58 122.795 1520.64 122.386 1520.87 121.999C1521.11 121.613 1521.44 121.366 1521.87 121.258L1524.95 120.489C1525.41 120.376 1525.82 120.437 1526.2 120.673C1526.58 120.905 1526.83 121.237 1526.94 121.668L1532.08 142.313C1532.19 142.744 1532.12 143.155 1531.88 143.544C1531.65 143.92 1531.31 144.161 1530.88 144.269L1527.8 145.037C1527.37 145.145 1526.96 145.093 1526.58 144.883C1526.19 144.662 1525.95 144.336 1525.84 143.904L1523.72 135.381L1512.31 138.225L1514.43 146.748C1514.54 147.179 1514.48 147.583 1514.24 147.958C1514.01 148.32 1513.69 148.555 1513.25 148.662L1510.17 149.431C1509.74 149.538 1509.33 149.483 1508.93 149.264C1508.53 149.035 1508.28 148.704 1508.17 148.273ZM1541.19 140.078L1541.42 123.254C1541.48 118.672 1544.61 115.602 1550.82 114.042L1559.76 111.815C1560.17 111.713 1560.54 111.783 1560.89 112.027C1561.24 112.267 1561.47 112.592 1561.57 113.001L1566.73 133.713C1566.84 134.144 1566.78 134.547 1566.54 134.923C1566.3 135.288 1565.97 135.524 1565.54 135.631L1562.42 136.408C1561.97 136.521 1561.55 136.471 1561.18 136.258C1560.82 136.031 1560.59 135.691 1560.47 135.238L1559.43 131.059L1547.64 133.998L1547.57 138.453C1547.57 138.934 1547.42 139.372 1547.11 139.767C1546.79 140.151 1546.42 140.397 1545.99 140.504L1542.72 141.318C1542.29 141.426 1541.95 141.381 1541.7 141.185C1541.45 140.977 1541.3 140.78 1541.25 140.592C1541.22 140.401 1541.2 140.23 1541.19 140.078ZM1547.7 128.999L1558.26 126.366L1556.1 117.71L1551.38 118.888C1550.32 119.153 1549.46 119.688 1548.82 120.494C1548.18 121.287 1547.85 122.226 1547.83 123.312L1547.7 128.999ZM1577.75 130.932L1572.6 110.286C1572.5 109.855 1572.56 109.446 1572.79 109.06C1573.02 108.673 1573.36 108.426 1573.79 108.319L1576.9 107.542C1577.33 107.434 1577.74 107.492 1578.11 107.716C1578.49 107.938 1578.74 108.264 1578.85 108.695L1583.22 126.24L1590.48 124.429L1586.11 106.885C1586 106.454 1586.07 106.05 1586.3 105.675C1586.54 105.299 1586.87 105.058 1587.3 104.95L1590.42 104.173C1590.85 104.066 1591.25 104.129 1591.63 104.365C1592.02 104.597 1592.26 104.929 1592.37 105.36L1596.73 122.871L1604.01 121.057L1599.64 103.512C1599.53 103.081 1599.59 102.679 1599.82 102.306C1600.05 101.931 1600.38 101.689 1600.82 101.582L1603.93 100.805C1604.36 100.697 1604.77 100.761 1605.14 100.996C1605.53 101.229 1605.78 101.56 1605.88 101.991L1611.03 122.637C1611.14 123.068 1611.08 123.477 1610.84 123.864C1610.62 124.236 1610.29 124.477 1609.86 124.584L1579.71 132.098C1579.28 132.205 1578.87 132.148 1578.49 131.927C1578.1 131.695 1577.86 131.363 1577.75 130.932ZM1620.12 120.406L1620.35 103.582C1620.41 99.0001 1623.54 95.9296 1629.75 94.37L1638.69 92.1423C1639.1 92.0404 1639.47 92.1111 1639.82 92.3545C1640.17 92.5952 1640.4 92.92 1640.5 93.329L1645.66 114.041C1645.77 114.472 1645.7 114.875 1645.47 115.251C1645.23 115.615 1644.9 115.851 1644.47 115.959L1641.35 116.736C1640.9 116.849 1640.48 116.799 1640.11 116.586C1639.75 116.359 1639.51 116.019 1639.4 115.566L1638.36 111.387L1626.57 114.325L1626.5 118.781C1626.5 119.262 1626.35 119.7 1626.03 120.095C1625.72 120.479 1625.35 120.724 1624.92 120.832L1621.65 121.646C1621.22 121.753 1620.88 121.709 1620.63 121.513C1620.38 121.305 1620.23 121.107 1620.18 120.92C1620.15 120.729 1620.13 120.557 1620.12 120.406ZM1626.63 109.327L1637.19 106.694L1635.03 98.0379L1630.31 99.2158C1629.25 99.4803 1628.39 100.016 1627.75 100.822C1627.11 101.615 1626.78 102.554 1626.76 103.64L1626.63 109.327Z" fill="white"/>
<path d="M241.839 299.134L237.478 278.274C237.387 277.839 237.467 277.438 237.716 277.072C237.965 276.706 238.307 276.477 238.742 276.386L241.887 275.729C242.322 275.638 242.723 275.717 243.089 275.966C243.467 276.213 243.701 276.554 243.792 276.989L247.485 294.654L258.726 292.304L255.026 274.606C254.935 274.171 255.009 273.771 255.247 273.407C255.496 273.041 255.839 272.812 256.274 272.721L259.435 272.06C259.859 271.972 260.26 272.051 260.637 272.298C261.015 272.545 261.249 272.886 261.34 273.321L265.033 290.986L266.839 290.608C267.274 290.517 267.681 290.595 268.058 290.842C268.436 291.089 268.67 291.43 268.761 291.865L269.089 293.438C269.18 293.872 269.102 294.279 268.855 294.656C268.606 295.023 268.264 295.251 267.829 295.342L243.757 300.374C243.322 300.465 242.917 300.393 242.542 300.157C242.164 299.91 241.93 299.569 241.839 299.134ZM277.813 291.579L273.459 270.752C273.368 270.317 273.447 269.917 273.696 269.55C273.946 269.184 274.288 268.955 274.723 268.864L294.01 264.832C294.445 264.741 294.846 264.821 295.212 265.07C295.59 265.317 295.824 265.658 295.915 266.093L296.244 267.665C296.335 268.1 296.257 268.506 296.01 268.884C295.772 269.248 295.435 269.476 295 269.566L280.43 272.612L281.447 277.48L293.994 274.858C294.429 274.767 294.829 274.846 295.196 275.095C295.571 275.331 295.804 275.666 295.895 276.101L296.223 277.674C296.314 278.109 296.236 278.515 295.989 278.892C295.751 279.256 295.415 279.484 294.98 279.575L282.434 282.198L283.465 287.132L298.002 284.094C298.426 284.005 298.82 284.08 299.184 284.318C299.548 284.556 299.775 284.893 299.866 285.328L300.202 286.933C300.293 287.368 300.215 287.775 299.968 288.152C299.719 288.519 299.376 288.747 298.942 288.838L279.737 292.853C279.303 292.944 278.897 292.871 278.522 292.635C278.145 292.388 277.908 292.036 277.813 291.579ZM307.746 285.531L308.638 268.584C308.868 264.008 312.111 261.06 318.365 259.741L326.729 257.993C327.119 257.911 327.482 258.004 327.817 258.271C328.164 258.537 328.38 258.875 328.466 259.288L332.82 280.115C332.911 280.55 332.838 280.955 332.603 281.33C332.376 281.692 332.045 281.918 331.61 282.009L328.415 282.677C327.98 282.768 327.575 282.695 327.199 282.459C326.833 282.21 326.604 281.868 326.513 281.433L322.817 263.751L318.735 264.605C317.665 264.828 316.792 265.331 316.117 266.112C315.452 266.88 315.086 267.806 315.022 268.89L314.185 284.01C314.169 284.491 313.997 284.923 313.67 285.305C313.34 285.677 312.958 285.908 312.523 285.999L309.127 286.709C308.737 286.79 308.421 286.728 308.18 286.523C307.95 286.315 307.818 286.127 307.783 285.96C307.759 285.79 307.747 285.647 307.746 285.531ZM343.952 277.753L339.605 256.959C339.51 256.502 339.581 256.092 339.819 255.728C340.057 255.363 340.405 255.134 340.862 255.038L344.007 254.381C344.442 254.29 344.843 254.369 345.209 254.618C345.587 254.865 345.821 255.206 345.912 255.641L347.286 262.215L355.55 260.488C358.182 259.938 360.502 260.18 362.511 261.215C364.531 262.248 365.801 264.007 366.321 266.494C366.841 268.981 366.382 271.102 364.945 272.858C363.508 274.613 361.479 275.765 358.858 276.313L345.793 279.044C345.381 279.13 344.991 279.049 344.625 278.799C344.267 278.536 344.043 278.188 343.952 277.753ZM349.605 273.306L357.868 271.579C359.742 271.187 360.457 269.932 360.014 267.813C359.569 265.683 358.41 264.813 356.536 265.205L348.272 266.933L349.605 273.306Z" fill="white"/>
<path d="M606.839 173.134L602.478 152.274C602.387 151.839 602.467 151.438 602.716 151.072C602.965 150.706 603.307 150.477 603.742 150.386L606.887 149.729C607.322 149.638 607.723 149.717 608.089 149.966C608.467 150.213 608.701 150.554 608.792 150.989L612.485 168.654L623.726 166.304L620.026 148.606C619.935 148.171 620.009 147.771 620.247 147.407C620.496 147.041 620.839 146.812 621.274 146.721L624.435 146.06C624.859 145.972 625.26 146.051 625.637 146.298C626.015 146.545 626.249 146.886 626.34 147.321L630.033 164.986L631.839 164.608C632.274 164.517 632.681 164.595 633.058 164.842C633.436 165.089 633.67 165.43 633.761 165.865L634.089 167.438C634.18 167.872 634.102 168.279 633.855 168.656C633.606 169.023 633.264 169.251 632.829 169.342L608.757 174.374C608.322 174.465 607.917 174.393 607.542 174.157C607.164 173.91 606.93 173.569 606.839 173.134ZM642.813 165.579L638.459 144.752C638.368 144.317 638.447 143.917 638.696 143.55C638.946 143.184 639.288 142.955 639.723 142.864L659.01 138.832C659.445 138.741 659.846 138.821 660.212 139.07C660.59 139.317 660.824 139.658 660.915 140.093L661.244 141.665C661.335 142.1 661.257 142.506 661.01 142.884C660.772 143.248 660.435 143.476 660 143.566L645.43 146.612L646.447 151.48L658.994 148.858C659.429 148.767 659.829 148.846 660.196 149.095C660.571 149.331 660.804 149.666 660.895 150.101L661.223 151.674C661.314 152.109 661.236 152.515 660.989 152.892C660.751 153.256 660.415 153.484 659.98 153.575L647.434 156.198L648.465 161.132L663.002 158.094C663.426 158.005 663.82 158.08 664.184 158.318C664.548 158.556 664.775 158.893 664.866 159.328L665.202 160.933C665.293 161.368 665.215 161.775 664.968 162.152C664.719 162.519 664.376 162.747 663.942 162.838L644.737 166.853C644.303 166.944 643.897 166.871 643.522 166.635C643.145 166.388 642.908 166.036 642.813 165.579ZM672.746 159.531L673.638 142.584C673.868 138.008 677.111 135.06 683.365 133.741L691.729 131.993C692.119 131.911 692.482 132.004 692.817 132.271C693.164 132.537 693.38 132.875 693.466 133.288L697.82 154.115C697.911 154.55 697.838 154.955 697.603 155.33C697.376 155.692 697.045 155.918 696.61 156.009L693.415 156.677C692.98 156.768 692.575 156.695 692.199 156.459C691.833 156.21 691.604 155.868 691.513 155.433L687.817 137.751L683.735 138.605C682.665 138.828 681.792 139.331 681.117 140.112C680.452 140.88 680.086 141.806 680.022 142.89L679.185 158.01C679.169 158.491 678.997 158.923 678.67 159.305C678.34 159.677 677.958 159.908 677.523 159.999L674.127 160.709C673.737 160.79 673.421 160.728 673.18 160.523C672.95 160.315 672.818 160.127 672.783 159.96C672.759 159.79 672.747 159.647 672.746 159.531ZM708.952 151.753L704.605 130.959C704.51 130.502 704.581 130.092 704.819 129.728C705.057 129.363 705.405 129.134 705.862 129.038L709.007 128.381C709.442 128.29 709.843 128.369 710.209 128.618C710.587 128.865 710.821 129.206 710.912 129.641L712.286 136.215L720.55 134.488C723.182 133.938 725.502 134.18 727.511 135.215C729.531 136.248 730.801 138.007 731.321 140.494C731.841 142.981 731.382 145.102 729.945 146.858C728.508 148.613 726.479 149.765 723.858 150.313L710.793 153.044C710.381 153.13 709.991 153.049 709.625 152.799C709.267 152.536 709.043 152.188 708.952 151.753ZM714.605 147.306L722.868 145.579C724.742 145.187 725.457 143.932 725.014 141.813C724.569 139.683 723.41 138.813 721.536 139.205L713.272 140.933L714.605 147.306Z" fill="white"/>
<path d="M978.266 202.444L980.399 181.24C980.443 180.798 980.64 180.439 980.988 180.165C981.336 179.891 981.731 179.776 982.173 179.821L985.37 180.142C985.812 180.187 986.17 180.383 986.444 180.731C986.73 181.081 986.85 181.476 986.806 181.918L985 199.875L996.427 201.024L998.236 183.034C998.281 182.592 998.471 182.233 998.808 181.958C999.156 181.683 999.551 181.569 999.994 181.613L1003.21 181.936C1003.64 181.98 1004 182.176 1004.28 182.525C1004.57 182.875 1004.69 183.27 1004.64 183.712L1002.84 201.669L1004.67 201.853C1005.12 201.898 1005.48 202.095 1005.77 202.444C1006.05 202.793 1006.17 203.189 1006.13 203.631L1005.97 205.23C1005.92 205.672 1005.72 206.035 1005.38 206.321C1005.03 206.595 1004.63 206.71 1004.19 206.666L979.721 204.205C979.279 204.16 978.914 203.969 978.628 203.631C978.342 203.282 978.222 202.886 978.266 202.444ZM1014.84 206.088L1016.97 184.918C1017.02 184.476 1017.21 184.118 1017.56 183.844C1017.91 183.569 1018.3 183.455 1018.75 183.499L1038.35 185.471C1038.79 185.515 1039.15 185.712 1039.43 186.06C1039.71 186.409 1039.83 186.805 1039.79 187.247L1039.63 188.845C1039.58 189.288 1039.39 189.651 1039.04 189.937C1038.7 190.212 1038.31 190.328 1037.87 190.283L1023.06 188.794L1022.56 193.742L1035.31 195.024C1035.76 195.069 1036.11 195.265 1036.39 195.613C1036.67 195.951 1036.8 196.341 1036.75 196.783L1036.59 198.382C1036.55 198.824 1036.35 199.188 1036 199.473C1035.66 199.749 1035.27 199.864 1034.83 199.819L1022.08 198.537L1021.57 203.553L1036.35 205.039C1036.78 205.083 1037.13 205.273 1037.41 205.609C1037.68 205.946 1037.8 206.336 1037.76 206.778L1037.59 208.41C1037.55 208.852 1037.35 209.216 1037 209.502C1036.65 209.776 1036.26 209.891 1035.82 209.846L1016.29 207.883C1015.85 207.838 1015.49 207.647 1015.2 207.309C1014.92 206.96 1014.8 206.553 1014.84 206.088ZM1045.21 209.348L1051.17 193.458C1052.77 189.165 1056.75 187.332 1063.11 187.961L1071.61 188.816C1072.01 188.856 1072.33 189.054 1072.56 189.41C1072.81 189.767 1072.92 190.155 1072.88 190.575L1070.75 211.745C1070.7 212.187 1070.51 212.551 1070.17 212.838C1069.85 213.114 1069.46 213.23 1069.02 213.186L1065.77 212.859C1065.33 212.815 1064.97 212.624 1064.68 212.286C1064.41 211.937 1064.29 211.542 1064.34 211.1L1066.14 193.127L1062 192.71C1060.91 192.6 1059.92 192.816 1059.04 193.358C1058.18 193.889 1057.55 194.662 1057.16 195.676L1051.8 209.84C1051.64 210.293 1051.35 210.653 1050.92 210.919C1050.5 211.174 1050.06 211.279 1049.62 211.235L1046.17 210.888C1045.77 210.848 1045.49 210.693 1045.32 210.424C1045.17 210.157 1045.1 209.938 1045.11 209.768C1045.14 209.599 1045.17 209.459 1045.21 209.348ZM1082.07 212.85L1084.2 191.714C1084.25 191.249 1084.44 190.879 1084.77 190.604C1085.11 190.328 1085.51 190.214 1085.98 190.261L1089.17 190.582C1089.62 190.627 1089.97 190.823 1090.25 191.171C1090.53 191.521 1090.65 191.916 1090.61 192.358L1089.94 199.041L1098.34 199.886C1101.01 200.155 1103.15 201.086 1104.76 202.678C1106.37 204.272 1107.05 206.333 1106.8 208.861C1106.54 211.389 1105.46 213.273 1103.57 214.513C1101.67 215.753 1099.38 216.24 1096.72 215.972L1083.44 214.636C1083.02 214.594 1082.67 214.399 1082.4 214.05C1082.14 213.692 1082.03 213.292 1082.07 212.85ZM1088.8 210.315L1097.2 211.16C1099.11 211.351 1100.17 210.37 1100.39 208.216C1100.6 206.051 1099.76 204.873 1097.86 204.681L1089.46 203.836L1088.8 210.315Z" fill="white"/>
<path d="M1334.02 191.129L1328.96 170.429C1328.85 169.997 1328.92 169.594 1329.15 169.219C1329.39 168.845 1329.72 168.605 1330.16 168.499L1333.28 167.736C1333.71 167.63 1334.11 167.696 1334.49 167.933C1334.87 168.167 1335.12 168.5 1335.22 168.931L1339.51 186.461L1350.67 183.733L1346.37 166.17C1346.27 165.738 1346.33 165.336 1346.55 164.964C1346.79 164.59 1347.12 164.35 1347.55 164.244L1350.69 163.477C1351.11 163.374 1351.52 163.44 1351.9 163.674C1352.29 163.908 1352.53 164.241 1352.64 164.672L1356.92 182.202L1358.72 181.764C1359.15 181.658 1359.56 181.723 1359.94 181.957C1360.33 182.191 1360.57 182.524 1360.68 182.955L1361.06 184.516C1361.17 184.947 1361.1 185.356 1360.87 185.742C1360.63 186.116 1360.3 186.356 1359.87 186.462L1335.98 192.304C1335.55 192.41 1335.14 192.351 1334.76 192.128C1334.37 191.894 1334.13 191.561 1334.02 191.129ZM1369.72 182.364L1364.66 161.696C1364.56 161.264 1364.62 160.861 1364.86 160.487C1365.1 160.112 1365.43 159.872 1365.86 159.767L1385 155.085C1385.43 154.98 1385.84 155.045 1386.21 155.282C1386.6 155.516 1386.84 155.849 1386.95 156.281L1387.33 157.841C1387.44 158.273 1387.37 158.682 1387.14 159.067C1386.91 159.439 1386.58 159.678 1386.15 159.783L1371.69 163.32L1372.87 168.15L1385.32 165.105C1385.76 165 1386.16 165.065 1386.53 165.302C1386.92 165.525 1387.16 165.853 1387.27 166.284L1387.65 167.845C1387.75 168.276 1387.69 168.685 1387.46 169.071C1387.23 169.442 1386.9 169.681 1386.47 169.787L1374.02 172.832L1375.22 177.729L1389.64 174.201C1390.06 174.098 1390.46 174.159 1390.83 174.385C1391.2 174.611 1391.44 174.94 1391.55 175.371L1391.94 176.965C1392.04 177.396 1391.98 177.805 1391.74 178.191C1391.51 178.565 1391.17 178.805 1390.74 178.911L1371.68 183.572C1371.25 183.677 1370.85 183.619 1370.46 183.396C1370.08 183.161 1369.83 182.818 1369.72 182.364ZM1399.43 175.308L1399.75 158.341C1399.82 153.759 1402.97 150.704 1409.17 149.175L1417.47 147.145C1417.86 147.05 1418.22 147.131 1418.57 147.387C1418.92 147.64 1419.15 147.971 1419.25 148.381L1424.31 169.048C1424.41 169.48 1424.35 169.887 1424.13 170.27C1423.92 170.639 1423.59 170.877 1423.16 170.982L1419.99 171.758C1419.56 171.863 1419.15 171.805 1418.77 171.582C1418.39 171.345 1418.15 171.011 1418.05 170.579L1413.76 153.032L1409.71 154.023C1408.64 154.283 1407.79 154.814 1407.14 155.618C1406.5 156.408 1406.17 157.346 1406.14 158.431L1405.81 173.571C1405.81 174.052 1405.66 174.489 1405.34 174.883C1405.03 175.265 1404.65 175.509 1404.22 175.615L1400.85 176.439C1400.46 176.534 1400.14 176.482 1399.9 176.285C1399.66 176.085 1399.52 175.902 1399.48 175.736C1399.45 175.567 1399.43 175.424 1399.43 175.308ZM1435.35 166.312L1430.31 145.677C1430.19 145.223 1430.25 144.811 1430.48 144.439C1430.7 144.067 1431.04 143.825 1431.5 143.714L1434.62 142.951C1435.05 142.846 1435.45 142.911 1435.83 143.148C1436.21 143.382 1436.46 143.715 1436.56 144.147L1438.16 150.671L1446.36 148.665C1448.97 148.026 1451.3 148.19 1453.34 149.157C1455.4 150.121 1456.72 151.836 1457.33 154.304C1457.93 156.772 1457.54 158.908 1456.17 160.711C1454.79 162.514 1452.8 163.733 1450.2 164.369L1437.24 167.54C1436.83 167.64 1436.43 167.572 1436.06 167.335C1435.69 167.084 1435.46 166.743 1435.35 166.312ZM1440.85 161.677L1449.05 159.671C1450.91 159.217 1451.58 157.938 1451.07 155.835C1450.55 153.721 1449.36 152.892 1447.51 153.346L1439.3 155.352L1440.85 161.677Z" fill="white"/>
<path d="M1669.84 111.824L1667.25 90.6704C1667.2 90.2293 1667.31 89.8368 1667.59 89.4928C1667.87 89.1488 1668.23 88.9498 1668.67 88.896L1671.86 88.5067C1672.3 88.4528 1672.7 88.5656 1673.04 88.845C1673.39 89.123 1673.6 89.4825 1673.65 89.9236L1675.84 107.838L1687.24 106.446L1685.05 88.4981C1684.99 88.057 1685.1 87.6652 1685.37 87.3226C1685.65 86.9786 1686.01 86.7796 1686.45 86.7258L1689.66 86.3344C1690.09 86.2819 1690.48 86.3947 1690.83 86.6727C1691.19 86.9507 1691.39 87.3103 1691.45 87.7513L1693.63 105.665L1695.47 105.442C1695.91 105.388 1696.31 105.5 1696.66 105.778C1697.02 106.056 1697.22 106.415 1697.28 106.856L1697.47 108.451C1697.52 108.892 1697.41 109.29 1697.13 109.646C1696.85 109.99 1696.49 110.189 1696.05 110.242L1671.64 113.222C1671.2 113.276 1670.8 113.17 1670.45 112.903C1670.09 112.625 1669.89 112.265 1669.84 111.824ZM1706.32 107.336L1703.74 86.2163C1703.69 85.7752 1703.8 85.3827 1704.08 85.0387C1704.36 84.6947 1704.72 84.4958 1705.16 84.4419L1724.72 82.0543C1725.16 82.0004 1725.55 82.1132 1725.9 82.3926C1726.25 82.6706 1726.46 83.0301 1726.51 83.4712L1726.71 85.0658C1726.76 85.5069 1726.65 85.9051 1726.37 86.2604C1726.1 86.603 1725.75 86.8012 1725.31 86.8551L1710.53 88.6587L1711.13 93.5952L1723.86 92.0421C1724.3 91.9883 1724.69 92.1011 1725.03 92.3805C1725.39 92.6471 1725.59 93.001 1725.64 93.4421L1725.84 95.0367C1725.89 95.4778 1725.78 95.8759 1725.5 96.2313C1725.23 96.5739 1724.88 96.7721 1724.44 96.826L1711.72 98.3791L1712.33 103.383L1727.07 101.584C1727.5 101.531 1727.88 101.639 1728.23 101.907C1728.57 102.175 1728.77 102.53 1728.82 102.971L1729.02 104.6C1729.07 105.041 1728.96 105.439 1728.68 105.794C1728.41 106.138 1728.04 106.337 1727.6 106.391L1708.13 108.768C1707.69 108.822 1707.29 108.716 1706.94 108.449C1706.58 108.171 1706.38 107.8 1706.32 107.336ZM1736.66 103.84L1738.98 87.0283C1739.59 82.4882 1743.07 79.8252 1749.42 79.0394L1757.9 78.004C1758.29 77.9557 1758.65 78.079 1758.96 78.3738C1759.28 78.6672 1759.47 79.0232 1759.52 79.4416L1762.1 100.562C1762.15 101.003 1762.05 101.4 1761.78 101.754C1761.52 102.095 1761.17 102.293 1760.73 102.347L1757.49 102.742C1757.05 102.796 1756.65 102.69 1756.3 102.423C1755.96 102.144 1755.76 101.783 1755.7 101.342L1753.51 83.4116L1749.37 83.9168C1748.29 84.0494 1747.38 84.4763 1746.64 85.1977C1745.91 85.9065 1745.47 86.7983 1745.31 87.8733L1743.2 102.869C1743.14 103.346 1742.94 103.762 1742.58 104.115C1742.22 104.458 1741.82 104.656 1741.38 104.71L1737.93 105.13C1737.54 105.178 1737.23 105.09 1737.01 104.864C1736.79 104.638 1736.68 104.44 1736.66 104.27C1736.65 104.099 1736.65 103.956 1736.66 103.84ZM1773.39 99.1489L1770.82 78.0627C1770.76 77.599 1770.87 77.1959 1771.13 76.8533C1771.4 76.5106 1771.77 76.311 1772.23 76.2544L1775.42 75.8651C1775.86 75.8113 1776.25 75.924 1776.6 76.2034C1776.95 76.4814 1777.16 76.841 1777.21 77.282L1778.03 83.9488L1786.41 82.9259C1789.07 82.6001 1791.37 83.0377 1793.28 84.2387C1795.21 85.4384 1796.32 87.2992 1796.63 89.8212C1796.94 92.3432 1796.3 94.418 1794.72 96.0456C1793.14 97.6733 1791.02 98.6493 1788.36 98.9737L1775.12 100.591C1774.7 100.642 1774.32 100.528 1773.97 100.249C1773.64 99.9565 1773.44 99.5899 1773.39 99.1489ZM1779.4 95.1959L1787.78 94.1729C1789.68 93.941 1790.5 92.7507 1790.24 90.6019C1789.97 88.4418 1788.89 87.4778 1786.99 87.7097L1778.61 88.7327L1779.4 95.1959Z" fill="white"/>
<defs>
<filter id="filter0_di_362_66319" x="-63" y="10.5381" width="2113.5" height="378.637" filterUnits="userSpaceOnUse" color-interpolation-filters="sRGB">
<feFlood flood-opacity="0" result="BackgroundImageFix"/>
<feColorMatrix in="SourceAlpha" type="matrix" values="0 0 0 0 0 0 0 0 0 0 0 0 0 0 0 0 0 0 127 0" result="hardAlpha"/>
<feOffset dy="8"/>
<feGaussianBlur stdDeviation="17"/>
<feComposite in2="hardAlpha" operator="out"/>
<feColorMatrix type="matrix" values="0 0 0 0 0 0 0 0 0 0 0 0 0 0 0 0 0 0 0.17 0"/>
<feBlend mode="normal" in2="BackgroundImageFix" result="effect1_dropShadow_362_66319"/>
<feBlend mode="normal" in="SourceGraphic" in2="effect1_dropShadow_362_66319" result="shape"/>
<feColorMatrix in="SourceAlpha" type="matrix" values="0 0 0 0 0 0 0 0 0 0 0 0 0 0 0 0 0 0 127 0" result="hardAlpha"/>
<feOffset dy="7"/>
<feGaussianBlur stdDeviation="8"/>
<feComposite in2="hardAlpha" operator="arithmetic" k2="-1" k3="1"/>
<feColorMatrix type="matrix" values="0 0 0 0 1 0 0 0 0 1 0 0 0 0 1 0 0 0 0.51 0"/>
<feBlend mode="normal" in2="shape" result="effect2_innerShadow_362_66319"/>
</filter>
</defs>
</svg>
