<svg width="253" height="352" fill="none" xmlns="http://www.w3.org/2000/svg"><path d="M12 319.797C12 327.182 10.278 330 5.989 330 1.699 330 0 326.96 0 319.785 0 312.06 2.424 310 6.087 310c3.896 0 5.913 2.375 5.913 9.797Zm-8.632-.115c0 5.112.371 7.754 2.643 7.754s2.621-2.523 2.621-7.692c0-5.334-.447-7.159-2.603-7.159-2.035-.004-2.661 1.936-2.661 7.097ZM252.989 266.215v.46c-.122 2.249-1.075 4.355-2.651 5.858-1.575 1.503-3.646 2.28-5.758 2.162-2.112-.119-4.094-1.123-5.513-2.794-1.419-1.671-2.159-3.872-2.058-6.122.11-2.217 1.028-4.301 2.559-5.808 1.53-1.507 3.552-2.319 5.636-2.262 2.083.057 4.064.978 5.52 2.566 1.456 1.589 2.273 3.72 2.276 5.94h-.011Zm-12.287 0a4.782 4.782 0 0 0 1.335 3.221 4.212 4.212 0 0 0 3.073 1.294c1.144-.016 2.237-.512 3.041-1.379a4.798 4.798 0 0 0 1.255-3.257 4.793 4.793 0 0 0-1.255-3.256 4.227 4.227 0 0 0-3.041-1.379 4.212 4.212 0 0 0-3.073 1.294 4.78 4.78 0 0 0-1.335 3.22v.242Z" fill="#FFB75E"/><path d="M128.014 19.707c-44.082 0-80.335 33.581-84.667 76.604a12.986 12.986 0 0 1-6.49 9.985A55.129 55.129 0 0 0 16.483 126.5 55.264 55.264 0 0 0 9 154.225v65.5a2.025 2.025 0 0 0 1.77 2.04 1.968 1.968 0 0 0 1.513-.503 1.961 1.961 0 0 0 .64-1.462v-65.583a51.015 51.015 0 0 1 10.563-31.144c6.411-8.361 19.65-5.669 22.435 4.501 9.887 36.117 42.889 62.658 82.077 62.658 39.189 0 72.194-26.541 82.081-62.658 2.782-10.17 16.02-12.862 22.431-4.501a51.018 51.018 0 0 1 10.566 31.144v104.44a2.024 2.024 0 0 0 1.766 2.04 1.956 1.956 0 0 0 1.516-.502 1.959 1.959 0 0 0 .642-1.464V154.217a55.264 55.264 0 0 0-7.482-27.725 55.134 55.134 0 0 0-20.375-20.204 12.949 12.949 0 0 1-4.457-4.202 12.99 12.99 0 0 1-2.033-5.782c-4.304-43.016-40.554-76.597-84.639-76.597Z" fill="#FFB75E"/><path d="M129.528 25.73c42.883 1.056 77.418 35.411 78.449 78.02 1.097 45.388-36.439 82.847-82.115 81.94-20.786-.396-40.609-8.778-55.31-23.387-14.7-14.608-23.136-34.308-23.536-54.964-.916-45.427 36.805-82.719 82.512-81.608Z" fill="url(#a)"/><path d="M180.32 52.796c-29.139-29.158-76.287-29.254-105.31-.213-29.02 29.041-28.925 76.221.214 105.38 29.139 29.158 76.288 29.254 105.31.213 29.021-29.041 28.926-76.22-.214-105.38Z" fill="#F9F9F9"/><path d="M12 252.564v.285c0 .758-.158 1.485-.44 2.021-.28.536-.662.837-1.06.837s-.78-.301-1.06-.837c-.282-.536-.44-1.263-.44-2.021v-.285c0-.758.158-1.485.44-2.021.28-.535.662-.836 1.06-.836s.78.301 1.06.836c.282.536.44 1.263.44 2.021ZM12 285.634v.386c0 .511-.158 1.001-.44 1.363-.28.361-.662.564-1.06.564s-.78-.203-1.06-.564c-.282-.362-.44-.852-.44-1.363v-.386c0-.511.158-1.001.44-1.363.28-.361.662-.564 1.06-.564s.78.203 1.06.564c.282.362.44.852.44 1.363Zm0 31.878v.385c0 .512-.158 1.002-.44 1.363-.28.362-.662.565-1.06.565s-.78-.203-1.06-.565c-.282-.361-.44-.851-.44-1.363v-.385c0-.511.158-1.002.44-1.363.28-.362.662-.565 1.06-.565s.78.203 1.06.565c.282.361.44.852.44 1.363Zm0 31.881v.386c0 .511-.158 1.001-.44 1.363-.28.361-.662.565-1.06.565s-.78-.204-1.06-.565c-.282-.362-.44-.852-.44-1.363v-.386c0-.511.158-1.001.44-1.362.28-.362.662-.565 1.06-.565s.78.203 1.06.565c.282.361.44.851.44 1.362ZM18.6 330v-16.289c-.85.196-1.723.3-2.6.31v-2.415A7.629 7.629 0 0 0 19.727 310H22v20h-3.4Z" fill="#FFB75E"/><path d="M147.344 85.469a.968.968 0 0 1-.969-.97v-9.687H142.5v4.844a.968.968 0 1 1-1.937 0v-5.812a.971.971 0 0 1 .968-.97h5.813a.97.97 0 0 1 .969.97V84.5a.972.972 0 0 1-.969.969Zm3.875 43.593h-9.606a.97.97 0 1 1 0-1.937h6.7V98.062h-2.907a.969.969 0 0 1 0-1.937h7.285L128.938 73.25l-23.754 22.874h7.285a.97.97 0 0 1 0 1.937h-2.906v10.657a.971.971 0 0 1-1.654.685.968.968 0 0 1-.284-.685V98.062h-4.844a.969.969 0 0 1-.672-1.666l26.156-25.187a.97.97 0 0 1 1.343 0l26.156 25.187a.966.966 0 0 1 .227 1.06.968.968 0 0 1-.897.606h-4.844v29.063h.969a.968.968 0 1 1 0 1.937Z" fill="#000" fill-opacity=".62"/><path d="M133.781 125.188a.972.972 0 0 1-.969-.969v-15.5a.97.97 0 0 1 1.654-.685.966.966 0 0 1 .284.685v15.5a.968.968 0 0 1-.969.969Zm-3.875 0a.971.971 0 0 1-.968-.969v-12.594a.971.971 0 0 1 .968-.969.966.966 0 0 1 .969.969v12.594a.968.968 0 0 1-.969.969Zm-3.875 0a.972.972 0 0 1-.969-.969v-9.688a.972.972 0 0 1 .969-.969.97.97 0 0 1 .969.969v9.688a.968.968 0 0 1-.969.969Zm-3.875 0a.971.971 0 0 1-.968-.969v-11.625a.97.97 0 1 1 1.937 0v11.625a.968.968 0 0 1-.969.969Zm-3.875 0a.972.972 0 0 1-.969-.969v-10.657a.971.971 0 0 1 1.654-.685.97.97 0 0 1 .284.685v10.657a.968.968 0 0 1-.969.969Zm-3.875 0a.971.971 0 0 1-.968-.969v-5.813c0-.257.102-.503.283-.685a.971.971 0 0 1 1.37 0 .968.968 0 0 1 .284.685v5.813a.968.968 0 0 1-.969.969Zm-3.875 0a.972.972 0 0 1-.969-.969v-3.875a.97.97 0 0 1 1.654-.685.966.966 0 0 1 .284.685v3.875a.968.968 0 0 1-.969.969Zm-3.875 0a.971.971 0 0 1-.968-.969v-4.844a.971.971 0 0 1 .968-.969.966.966 0 0 1 .969.969v4.844a.968.968 0 0 1-.969.969Zm-7.75 0a.972.972 0 0 1-.969-.969v-1.938a.97.97 0 0 1 1.938 0v1.938a.97.97 0 0 1-.969.969Zm3.875 0a.972.972 0 0 1-.969-.969v-3.875a.97.97 0 0 1 1.654-.685.966.966 0 0 1 .284.685v3.875a.968.968 0 0 1-.969.969Zm34.875 3.874h-38.75a.971.971 0 0 1-.969-.968.968.968 0 0 1 .97-.969h38.749a.966.966 0 0 1 .969.969.968.968 0 0 1-.969.968Z" fill="#000" fill-opacity=".62"/><path d="M98.906 119.373a.971.971 0 0 1-.95-1.157.97.97 0 0 1 .264-.496l6.781-6.781a.968.968 0 0 1 1.37 0l3.191 3.189 9.971-9.97a.966.966 0 0 1 1.369 0l4.16 4.158 12.877-12.877a.968.968 0 0 1 1.37 1.37l-13.563 13.56a.966.966 0 0 1-1.37 0l-4.157-4.156-9.971 9.971a.97.97 0 0 1-1.37 0l-3.191-3.191-6.095 6.095a.976.976 0 0 1-.686.285Z" fill="#000" fill-opacity=".62"/><path d="M138.627 103.873a.976.976 0 0 1-.728-.328.972.972 0 0 1-.235-.763l.814-6.512-6.512.814a.968.968 0 0 1-.887-1.557.964.964 0 0 1 .645-.367l7.75-.969a.972.972 0 0 1 1.083 1.083l-.969 7.75a.977.977 0 0 1-.32.606.976.976 0 0 1-.641.243Zm-9.689-13.578a3.863 3.863 0 0 1-3.858-3.858 3.863 3.863 0 0 1 3.858-3.857 3.861 3.861 0 0 1 3.857 3.857 3.861 3.861 0 0 1-3.857 3.858Zm0-5.778a1.923 1.923 0 0 0-1.359 3.28 1.923 1.923 0 0 0 3.28-1.359 1.923 1.923 0 0 0-1.921-1.92ZM155.094 129.062a.968.968 0 1 0 .001-1.935.968.968 0 0 0-.001 1.935Z" fill="#000" fill-opacity=".62"/><defs><linearGradient id="a" x1="184.344" y1="162.197" x2="71.362" y2="48.508" gradientUnits="userSpaceOnUse"><stop stop-color="#EBEAEA"/><stop offset="1" stop-color="#fff"/></linearGradient></defs></svg>