<svg width="253" height="352" fill="none" xmlns="http://www.w3.org/2000/svg"><path d="M12 319.797C12 327.182 10.278 330 5.989 330 1.699 330 0 326.96 0 319.785 0 312.06 2.424 310 6.087 310c3.896 0 5.913 2.375 5.913 9.797Zm-8.632-.115c0 5.112.371 7.754 2.643 7.754s2.621-2.523 2.621-7.692c0-5.334-.447-7.159-2.603-7.159-2.035-.004-2.661 1.936-2.661 7.097ZM252.989 266.215v.46c-.122 2.249-1.075 4.355-2.651 5.858-1.575 1.503-3.646 2.28-5.758 2.162-2.112-.119-4.094-1.123-5.513-2.794-1.419-1.671-2.159-3.872-2.058-6.122.11-2.217 1.028-4.301 2.559-5.808 1.53-1.507 3.552-2.319 5.636-2.262 2.083.057 4.064.978 5.52 2.566 1.456 1.589 2.273 3.72 2.276 5.94h-.011Zm-12.287 0a4.782 4.782 0 0 0 1.335 3.221 4.212 4.212 0 0 0 3.073 1.294c1.144-.016 2.237-.512 3.041-1.379a4.798 4.798 0 0 0 1.255-3.257 4.793 4.793 0 0 0-1.255-3.256 4.227 4.227 0 0 0-3.041-1.379 4.212 4.212 0 0 0-3.073 1.294 4.78 4.78 0 0 0-1.335 3.22v.242Z" fill="#FFB75E"/><path d="M128.014 19.707c-44.082 0-80.335 33.581-84.667 76.604a12.986 12.986 0 0 1-6.49 9.985A55.129 55.129 0 0 0 16.483 126.5 55.264 55.264 0 0 0 9 154.225v65.5a2.025 2.025 0 0 0 1.77 2.04 1.968 1.968 0 0 0 1.513-.503 1.961 1.961 0 0 0 .64-1.462v-65.583a51.015 51.015 0 0 1 10.563-31.144c6.411-8.361 19.65-5.669 22.435 4.501 9.887 36.117 42.889 62.658 82.077 62.658 39.189 0 72.194-26.541 82.081-62.658 2.782-10.17 16.02-12.862 22.431-4.501a51.018 51.018 0 0 1 10.566 31.144v104.44a2.024 2.024 0 0 0 1.766 2.04 1.956 1.956 0 0 0 1.516-.502 1.959 1.959 0 0 0 .642-1.464V154.217a55.264 55.264 0 0 0-7.482-27.725 55.134 55.134 0 0 0-20.375-20.204 12.949 12.949 0 0 1-4.457-4.202 12.99 12.99 0 0 1-2.033-5.782c-4.304-43.016-40.554-76.597-84.639-76.597Z" fill="#FFB75E"/><path d="M129.528 25.73c42.883 1.056 77.418 35.411 78.449 78.02 1.097 45.388-36.439 82.847-82.115 81.94-20.786-.396-40.609-8.778-55.31-23.387-14.7-14.608-23.136-34.308-23.536-54.964-.916-45.427 36.805-82.719 82.512-81.608Z" fill="url(#a)"/><path d="M180.32 52.796c-29.139-29.158-76.287-29.254-105.31-.213-29.02 29.041-28.925 76.221.214 105.38 29.139 29.158 76.288 29.254 105.31.213 29.021-29.041 28.926-76.22-.214-105.38Z" fill="#F9F9F9"/><path d="M12 252.564v.285c0 .758-.158 1.485-.44 2.021-.28.536-.662.837-1.06.837s-.78-.301-1.06-.837c-.282-.536-.44-1.263-.44-2.021v-.285c0-.758.158-1.485.44-2.021.28-.535.662-.836 1.06-.836s.78.301 1.06.836c.282.536.44 1.263.44 2.021ZM12 285.634v.386c0 .511-.158 1.001-.44 1.363-.28.361-.662.564-1.06.564s-.78-.203-1.06-.564c-.282-.362-.44-.852-.44-1.363v-.386c0-.511.158-1.001.44-1.363.28-.361.662-.564 1.06-.564s.78.203 1.06.564c.282.362.44.852.44 1.363Zm0 31.878v.385c0 .512-.158 1.002-.44 1.363-.28.362-.662.565-1.06.565s-.78-.203-1.06-.565c-.282-.361-.44-.851-.44-1.363v-.385c0-.511.158-1.002.44-1.363.28-.362.662-.565 1.06-.565s.78.203 1.06.565c.282.361.44.852.44 1.363Zm0 31.881v.386c0 .511-.158 1.001-.44 1.363-.28.361-.662.565-1.06.565s-.78-.204-1.06-.565c-.282-.362-.44-.852-.44-1.363v-.386c0-.511.158-1.001.44-1.362.28-.362.662-.565 1.06-.565s.78.203 1.06.565c.282.361.44.851.44 1.362ZM13 329v-.174c.02-2.897 1.415-5.252 4.397-8.464 2.33-2.526 2.936-3.312 2.936-5.292 0-1.502-.373-2.679-2.017-2.679-1.645 0-2.154 1.249-2.228 3.252h-2.973c.029-2.885 1.35-5.643 5.283-5.643 3.69 0 5.081 2.166 5.081 5.137 0 2.344-.685 3.585-3.215 6.165-1.998 2.051-3.322 3.809-3.72 5.137H24l-.41 2.553L13 329Z" fill="#FFB75E"/><path d="M151.25 85.14v-3.874h-9.688v-2.907h-1.937v2.907h-7.75v-2.907h-1.937v2.907h-7.75v-2.907h-1.938v2.907h-7.75v-2.907h-1.938v2.907h-9.687v46.5h3.875v3.875h50.375v-46.5h-3.875Zm-48.438-1.937h7.75v1.938h-.968v1.937h3.875v-1.937h-.969v-1.938h7.75v1.938h-.969v1.937h3.875v-1.937h-.968v-1.938h7.75v1.938h-.969v1.937h3.875v-1.937h-.969v-1.938h7.75v1.938h-.969v1.937h3.875v-1.937h-.969v-1.938h7.75v8.719h-46.5v-8.719Zm0 42.625V93.859h46.5v31.969h-46.5Zm50.376 3.875h-46.5v-1.937h44.562V87.078h1.938v42.625Z" fill="#000" fill-opacity=".62"/><path d="M134.781 96.766h-17.437a.967.967 0 0 0-.969.968v24.219a.968.968 0 0 0 .969.969h17.437a.966.966 0 0 0 .969-.969V97.734a.967.967 0 0 0-.969-.968Zm-.969 24.218h-15.5v-22.28h15.5v22.28Z" fill="#000" fill-opacity=".62"/><path d="M130.48 100.641h-8.835a.426.426 0 0 0-.426.426v2.054c0 .235.191.426.426.426h8.835a.426.426 0 0 0 .426-.426v-2.054a.426.426 0 0 0-.426-.426ZM121.597 118.998h4.088c.581 0 .329-.91.378-1.511a.387.387 0 0 0-.378-.378h-4.088a.39.39 0 0 0-.378.378c.048.601-.203 1.502.378 1.511ZM130.528 117.109h-2.15a.378.378 0 0 0-.378.378v1.182c0 .209.169.378.378.378h2.15a.378.378 0 0 0 .378-.378v-1.182a.378.378 0 0 0-.378-.378ZM122.188 105.484a.97.97 0 0 0-.686 1.654.97.97 0 0 0 1.654-.685.971.971 0 0 0-.968-.969Zm3.874 0a.97.97 0 1 0 .001 1.94.97.97 0 0 0-.001-1.94Zm3.876 1.938a.97.97 0 1 0-.001-1.94.97.97 0 0 0 .001 1.94Zm-7.75 1.937a.97.97 0 0 0-.686 1.654.97.97 0 0 0 1.654-.685.971.971 0 0 0-.968-.969Zm3.874 0a.97.97 0 1 0 .001 1.94.97.97 0 0 0-.001-1.94Zm3.876 1.938a.97.97 0 1 0-.001-1.94.97.97 0 0 0 .001 1.94Zm-7.75 1.937a.97.97 0 0 0-.686 1.654.97.97 0 0 0 1.654-.685.971.971 0 0 0-.968-.969Zm3.874 0a.97.97 0 1 0 .001 1.94.97.97 0 0 0-.001-1.94Zm3.876 1.938a.97.97 0 1 0-.001-1.94.97.97 0 0 0 .001 1.94Z" fill="#000" fill-opacity=".62"/><defs><linearGradient id="a" x1="184.344" y1="162.197" x2="71.362" y2="48.508" gradientUnits="userSpaceOnUse"><stop stop-color="#EBEAEA"/><stop offset="1" stop-color="#fff"/></linearGradient></defs></svg>