<svg width="253" height="352" fill="none" xmlns="http://www.w3.org/2000/svg"><path d="M12 319.797C12 327.182 10.278 330 5.989 330 1.699 330 0 326.96 0 319.785 0 312.06 2.424 310 6.087 310c3.896 0 5.913 2.375 5.913 9.797Zm-8.632-.115c0 5.112.371 7.754 2.643 7.754s2.621-2.523 2.621-7.692c0-5.334-.447-7.159-2.603-7.159-2.035-.004-2.661 1.936-2.661 7.097ZM252.989 266.215v.46c-.122 2.249-1.075 4.355-2.651 5.858-1.575 1.503-3.646 2.28-5.758 2.162-2.112-.119-4.094-1.123-5.513-2.794-1.419-1.671-2.159-3.872-2.058-6.122.11-2.217 1.028-4.301 2.559-5.808 1.53-1.507 3.552-2.319 5.636-2.262 2.083.057 4.064.978 5.52 2.566 1.456 1.589 2.273 3.72 2.276 5.94h-.011Zm-12.287 0a4.782 4.782 0 0 0 1.335 3.221 4.212 4.212 0 0 0 3.073 1.294c1.144-.016 2.237-.512 3.041-1.379a4.798 4.798 0 0 0 1.255-3.257 4.793 4.793 0 0 0-1.255-3.256 4.227 4.227 0 0 0-3.041-1.379 4.212 4.212 0 0 0-3.073 1.294 4.78 4.78 0 0 0-1.335 3.22v.242Z" fill="#FFB75E"/><path d="M128.014 19.707c-44.082 0-80.335 33.581-84.667 76.604a12.986 12.986 0 0 1-6.49 9.985A55.129 55.129 0 0 0 16.483 126.5 55.264 55.264 0 0 0 9 154.225v65.5a2.025 2.025 0 0 0 1.77 2.04 1.968 1.968 0 0 0 1.513-.503 1.961 1.961 0 0 0 .64-1.462v-65.583a51.015 51.015 0 0 1 10.563-31.144c6.411-8.361 19.65-5.669 22.435 4.501 9.887 36.117 42.889 62.658 82.077 62.658 39.189 0 72.194-26.541 82.081-62.658 2.782-10.17 16.02-12.862 22.431-4.501a51.018 51.018 0 0 1 10.566 31.144v104.44a2.024 2.024 0 0 0 1.766 2.04 1.956 1.956 0 0 0 1.516-.502 1.959 1.959 0 0 0 .642-1.464V154.217a55.264 55.264 0 0 0-7.482-27.725 55.134 55.134 0 0 0-20.375-20.204 12.949 12.949 0 0 1-4.457-4.202 12.99 12.99 0 0 1-2.033-5.782c-4.304-43.016-40.554-76.597-84.639-76.597Z" fill="#FFB75E"/><path d="M129.528 25.73c42.883 1.056 77.418 35.411 78.449 78.02 1.097 45.388-36.439 82.847-82.115 81.94-20.786-.396-40.609-8.778-55.31-23.387-14.7-14.608-23.136-34.308-23.536-54.964-.916-45.427 36.805-82.719 82.512-81.608Z" fill="url(#a)"/><path d="M180.32 52.796c-29.139-29.158-76.287-29.254-105.31-.213-29.02 29.041-28.925 76.221.214 105.38 29.139 29.158 76.288 29.254 105.31.213 29.021-29.041 28.926-76.22-.214-105.38Z" fill="#F9F9F9"/><path d="M12 252.564v.285c0 .758-.158 1.485-.44 2.021-.28.536-.662.837-1.06.837s-.78-.301-1.06-.837c-.282-.536-.44-1.263-.44-2.021v-.285c0-.758.158-1.485.44-2.021.28-.535.662-.836 1.06-.836s.78.301 1.06.836c.282.536.44 1.263.44 2.021ZM12 285.634v.386c0 .511-.158 1.001-.44 1.363-.28.361-.662.564-1.06.564s-.78-.203-1.06-.564c-.282-.362-.44-.852-.44-1.363v-.386c0-.511.158-1.001.44-1.363.28-.361.662-.564 1.06-.564s.78.203 1.06.564c.282.362.44.852.44 1.363Zm0 31.878v.385c0 .512-.158 1.002-.44 1.363-.28.362-.662.565-1.06.565s-.78-.203-1.06-.565c-.282-.361-.44-.851-.44-1.363v-.385c0-.511.158-1.002.44-1.363.28-.362.662-.565 1.06-.565s.78.203 1.06.565c.282.361.44.852.44 1.363Zm0 31.881v.386c0 .511-.158 1.001-.44 1.363-.28.361-.662.565-1.06.565s-.78-.204-1.06-.565c-.282-.362-.44-.852-.44-1.363v-.386c0-.511.158-1.001.44-1.362.28-.362.662-.565 1.06-.565s.78.203 1.06.565c.282.361.44.851.44 1.362ZM14.312 315.3c0-2.373 1.101-5.3 5.159-5.3 3.459 0 4.93 2.024 4.93 4.955 0 2.43-1.076 3.621-2.386 4.105v.049c1.663.538 2.985 1.864 2.985 4.766 0 3.235-1.276 6.125-5.658 6.125-3.712 0-5.25-2.266-5.342-5.259h2.989c.079 1.396.653 2.796 2.42 2.796 1.92 0 2.436-1.523 2.436-3.58 0-2.533-.96-3.415-3.239-3.415h-.881v-2.537h.831c1.875 0 2.744-.628 2.744-2.874 0-1.576-.416-2.668-2.02-2.668-1.792 0-2.05 1.732-2.112 2.816l-2.856.021Z" fill="#FFB75E"/><path d="M110.08 103.249c.642.624.95 1.439.868 2.298a3.016 3.016 0 0 1-1.348 2.203 3.793 3.793 0 0 1-1.341.538v.857a1.03 1.03 0 1 1-2.06 0v-.984c-1.174-.381-2.105-1.268-2.623-2.506a1.03 1.03 0 1 1 1.9-.796c.369.879.96 1.222 1.393 1.353.547.168 1.175.096 1.601-.184a.934.934 0 0 0 .428-.676c.022-.23-.063-.441-.252-.625-.199-.193-.766-.327-1.267-.445-.865-.203-1.943-.457-2.731-1.265-.678-.699-.951-1.742-.714-2.724.244-1.008.964-1.783 1.976-2.126.096-.032.192-.06.29-.085v-.927a1.03 1.03 0 1 1 2.06 0v.887c.356.079.695.203 1.002.37a3.061 3.061 0 0 1 1.545 1.993 1.028 1.028 0 0 1-.754 1.246 1.028 1.028 0 0 1-1.246-.754 1.026 1.026 0 0 0-.534-.679c-.457-.25-1.141-.29-1.701-.101-.427.145-.58.437-.633.658-.073.296.001.612.187.802.368.376 1.028.532 1.727.697.795.191 1.62.385 2.227.975Zm35.707 19.201a1.03 1.03 0 0 1 0 1.457c-5.171 5.172-12.048 8.019-19.364 8.019a27.24 27.24 0 0 1-8.853-1.465 3.949 3.949 0 0 1-3.069 1.465H99.957a3.958 3.958 0 0 1-3.953-3.953c0-1.159.5-2.202 1.295-2.926a3.947 3.947 0 0 1 0-5.85 3.942 3.942 0 0 1-1.295-2.924 3.96 3.96 0 0 1 3.953-3.957h.794C97.879 110.28 96 106.931 96 103.152c0-4.025 2.128-7.56 5.319-9.543a27.333 27.333 0 0 1 25.105-16.442c.57 0 1.03.462 1.03 1.03v25.922l18.333 18.331Zm-38.558-10.134c5.053 0 9.164-4.111 9.164-9.164 0-5.056-4.111-9.168-9.164-9.168-5.056 0-9.168 4.112-9.168 9.168 0 5.053 4.114 9.164 9.168 9.164Zm-7.272 5.85h14.544a1.895 1.895 0 0 0 0-3.789H99.957a1.895 1.895 0 0 0 0 3.789Zm0 5.849h14.544a1.894 1.894 0 0 0 0-3.788H99.957a1.894 1.894 0 0 0 0 3.788Zm16.436 3.958c0-1.046-.85-1.896-1.892-1.896H99.957a1.894 1.894 0 0 0 0 3.788h14.544a1.893 1.893 0 0 0 1.892-1.892Zm27.195-4.808-17.892-17.889a1.02 1.02 0 0 1-.302-.728v-25.3a25.27 25.27 0 0 0-21.152 13.078 11.201 11.201 0 0 1 2.987-.403c6.19 0 11.225 5.037 11.225 11.229 0 3.779-1.878 7.128-4.75 9.164h.797a3.96 3.96 0 0 1 3.953 3.957c0 1.158-.5 2.201-1.295 2.924a3.95 3.95 0 0 1 0 5.85 3.95 3.95 0 0 1 1.25 3.523 25.221 25.221 0 0 0 8.014 1.296c6.422 0 12.477-2.371 17.165-6.701Zm-13.518-21.709V75.103c0-.57.461-1.03 1.03-1.03 7.314 0 14.19 2.85 19.362 8.02 5.17 5.172 8.019 12.05 8.019 19.364 0 .57-.462 1.03-1.03 1.03h-26.35a1.03 1.03 0 0 1-1.031-1.031Zm2.061-1.03h24.268c-.528-13.145-11.125-23.742-24.268-24.272v24.272ZM162 106.13c0 7.314-2.848 14.19-8.019 19.36a1.03 1.03 0 0 1-1.457 0l-18.633-18.632a1.031 1.031 0 0 1 .728-1.76h26.35c.57 0 1.031.462 1.031 1.032Zm-2.082 1.03h-22.81l16.129 16.13a25.12 25.12 0 0 0 6.681-16.13Z" fill="#000" fill-opacity=".62"/><ellipse cx="107.5" cy="103" rx="6.5" ry="8" fill="#fff"/><defs><linearGradient id="a" x1="184.344" y1="162.197" x2="71.362" y2="48.508" gradientUnits="userSpaceOnUse"><stop stop-color="#EBEAEA"/><stop offset="1" stop-color="#fff"/></linearGradient></defs></svg>