<svg width="253" height="352" fill="none" xmlns="http://www.w3.org/2000/svg"><path d="M12 319.797C12 327.182 10.278 330 5.989 330 1.699 330 0 326.96 0 319.785 0 312.06 2.424 310 6.087 310c3.896 0 5.913 2.375 5.913 9.797Zm-8.632-.115c0 5.112.371 7.754 2.643 7.754s2.621-2.523 2.621-7.692c0-5.334-.447-7.159-2.603-7.159-2.035-.004-2.661 1.936-2.661 7.097ZM252.989 266.215v.46c-.122 2.249-1.075 4.355-2.651 5.858-1.575 1.503-3.646 2.28-5.758 2.162-2.112-.119-4.094-1.123-5.513-2.794-1.419-1.671-2.159-3.872-2.058-6.122.11-2.217 1.028-4.301 2.559-5.808 1.53-1.507 3.552-2.319 5.636-2.262 2.083.057 4.064.978 5.52 2.566 1.456 1.589 2.273 3.72 2.276 5.94h-.011Zm-12.287 0a4.782 4.782 0 0 0 1.335 3.221 4.212 4.212 0 0 0 3.073 1.294c1.144-.016 2.237-.512 3.041-1.379a4.798 4.798 0 0 0 1.255-3.257 4.793 4.793 0 0 0-1.255-3.256 4.227 4.227 0 0 0-3.041-1.379 4.212 4.212 0 0 0-3.073 1.294 4.78 4.78 0 0 0-1.335 3.22v.242Z" fill="#FFB75E"/><path d="M128.014 19.707c-44.082 0-80.335 33.581-84.667 76.604a12.986 12.986 0 0 1-6.49 9.985A55.129 55.129 0 0 0 16.483 126.5 55.264 55.264 0 0 0 9 154.225v65.5a2.025 2.025 0 0 0 1.77 2.04 1.968 1.968 0 0 0 1.513-.503 1.961 1.961 0 0 0 .64-1.462v-65.583a51.015 51.015 0 0 1 10.563-31.144c6.411-8.361 19.65-5.669 22.435 4.501 9.887 36.117 42.889 62.658 82.077 62.658 39.189 0 72.194-26.541 82.081-62.658 2.782-10.17 16.02-12.862 22.431-4.501a51.018 51.018 0 0 1 10.566 31.144v104.44a2.024 2.024 0 0 0 1.766 2.04 1.956 1.956 0 0 0 1.516-.502 1.959 1.959 0 0 0 .642-1.464V154.217a55.264 55.264 0 0 0-7.482-27.725 55.134 55.134 0 0 0-20.375-20.204 12.949 12.949 0 0 1-4.457-4.202 12.99 12.99 0 0 1-2.033-5.782c-4.304-43.016-40.554-76.597-84.639-76.597Z" fill="#FFB75E"/><path d="M129.528 25.73c42.883 1.056 77.418 35.411 78.449 78.02 1.097 45.388-36.439 82.847-82.115 81.94-20.786-.396-40.609-8.778-55.31-23.387-14.7-14.608-23.136-34.308-23.536-54.964-.916-45.427 36.805-82.719 82.512-81.608Z" fill="url(#a)"/><path d="M180.32 52.796c-29.139-29.158-76.287-29.254-105.31-.213-29.02 29.041-28.925 76.221.214 105.38 29.139 29.158 76.288 29.254 105.31.213 29.021-29.041 28.926-76.22-.214-105.38Z" fill="#F9F9F9"/><path d="M12 252.564v.285c0 .758-.158 1.485-.44 2.021-.28.536-.662.837-1.06.837s-.78-.301-1.06-.837c-.282-.536-.44-1.263-.44-2.021v-.285c0-.758.158-1.485.44-2.021.28-.535.662-.836 1.06-.836s.78.301 1.06.836c.282.536.44 1.263.44 2.021ZM12 285.634v.386c0 .511-.158 1.001-.44 1.363-.28.361-.662.564-1.06.564s-.78-.203-1.06-.564c-.282-.362-.44-.852-.44-1.363v-.386c0-.511.158-1.001.44-1.363.28-.361.662-.564 1.06-.564s.78.203 1.06.564c.282.362.44.852.44 1.363Zm0 31.878v.385c0 .512-.158 1.002-.44 1.363-.28.362-.662.565-1.06.565s-.78-.203-1.06-.565c-.282-.361-.44-.851-.44-1.363v-.385c0-.511.158-1.002.44-1.363.28-.362.662-.565 1.06-.565s.78.203 1.06.565c.282.361.44.852.44 1.363Zm0 31.881v.386c0 .511-.158 1.001-.44 1.363-.28.361-.662.565-1.06.565s-.78-.204-1.06-.565c-.282-.362-.44-.852-.44-1.363v-.386c0-.511.158-1.001.44-1.362.28-.362.662-.565 1.06-.565s.78.203 1.06.565c.282.361.44.851.44 1.362ZM20.566 330v-4.942H14v-2.602L19.55 310h3.72v12.469H25l-.268 2.589h-1.463V330h-2.703Zm0-12.124c0-2.008.03-3.755.097-5.375-.696 2.214-2.723 7.025-3.936 9.968h3.839v-4.593Z" fill="#FFB75E"/><g clip-path="url(#b)"><path fill-rule="evenodd" clip-rule="evenodd" d="M136.486 129.891H98.109a2.177 2.177 0 0 1-2.175-2.171V75.108c0-1.2.974-2.175 2.175-2.175h33.881c.597 0 1.114.217 1.534.637l6.207 6.207c.419.42.636.936.636 1.534v23.487c6.593.483 11.79 5.983 11.79 12.699 0 2.389-.658 4.625-1.802 6.535l2.4 2.331a2.14 2.14 0 0 1 2.26.449v.001l6.407 6.218c.839.812.863 2.163.045 3.008l-.001.001-2.312 2.382-.001.001c-.812.836-2.16.86-3.004.049l-.005-.004-6.403-6.217a2.133 2.133 0 0 1-.523-2.247l-2.288-2.22a12.675 12.675 0 0 1-7.507 2.447 12.734 12.734 0 0 1-2.937-.34Zm-5.107-54.824h-33.27a.042.042 0 0 0-.042.041v52.612c0 .022.02.038.042.038h33.77a12.797 12.797 0 0 1-3.1-3.268H100.77a1.067 1.067 0 0 1 0-2.133h1.19v-7.767a1.066 1.066 0 0 1 1.067-1.066h4.607a1.066 1.066 0 0 1 1.067 1.066v7.767h1.812v-12.392a1.066 1.066 0 0 1 1.066-1.067h4.602a1.067 1.067 0 0 1 1.067 1.067v12.392h1.811V105.13a1.067 1.067 0 0 1 1.067-1.066h4.602a1.066 1.066 0 0 1 1.066 1.066v17.227h1.855a12.695 12.695 0 0 1-.96-4.86c0-1.681.325-3.286.917-4.756v-11.956a1.067 1.067 0 0 1 1.067-1.066h4.602a1.068 1.068 0 0 1 1.066 1.066v5.032a12.644 12.644 0 0 1 3.893-.999V81.922H133a1.63 1.63 0 0 1-1.621-1.621v-5.234Zm5.347 4.721-3.214-3.213v3.213h3.214Zm12.368 45.994c-.176.205-.358.405-.547.598l2.021 1.961.564-.581-2.038-1.978Zm-19.355-16.556a12.827 12.827 0 0 1 2.469-2.224v-5.15h-2.469v7.374Zm-8.546 13.131h2.468v-16.16h-2.468v16.16Zm-8.547 0h2.468v-11.326h-2.468v11.326Zm-8.553 0h2.474v-6.7h-2.474v6.7Zm47.137 8.366 6.396 6.21 2.306-2.376-6.398-6.209-2.304 2.375Zm-19.435-35.922c-9.265 8.012-19.352 13.115-28.901 16.44a1.064 1.064 0 0 1-1.311-1.472c.123-.255.342-.45.609-.543 9.286-3.232 19.093-8.184 28.108-15.952l-.649.035a1.065 1.065 0 0 1-.853-1.776c.188-.21.453-.338.735-.353l3.683-.203a1.067 1.067 0 0 1 1.114 1.218l-.531 3.653a1.067 1.067 0 0 1-2.111-.307l.107-.74Zm-12.624-8.052a1.067 1.067 0 0 1 0-2.133h2.728a1.067 1.067 0 0 1 0 2.133h-2.728Zm-16.628 0a1.067 1.067 0 0 1 0-2.133h11.222a1.067 1.067 0 0 1 0 2.133h-11.222Zm0-5.076a1.067 1.067 0 0 1 0-2.134h3.09a1.067 1.067 0 0 1 0 2.134h-3.09Zm8.77 0a1.067 1.067 0 0 1 0-2.134h10.586a1.067 1.067 0 0 1 0 2.134h-10.586Zm-8.77 10.153a1.067 1.067 0 0 1 0-2.133h8.116a1.067 1.067 0 0 1 0 2.133h-8.116Zm12.62 0a1.067 1.067 0 0 1 0-2.133h6.736a1.067 1.067 0 0 1 0 2.133h-6.736Zm24.26 15.07c-5.855 0-10.601 4.746-10.601 10.601s4.746 10.601 10.601 10.601 10.601-4.746 10.601-10.601-4.746-10.601-10.601-10.601Zm0 1.281a9.32 9.32 0 1 1 0 18.64 9.32 9.32 0 0 1 0-18.64Zm0 2.134a7.186 7.186 0 1 0-.001 14.373 7.186 7.186 0 0 0 .001-14.373Z" fill="#000" fill-opacity=".62"/></g><defs><linearGradient id="a" x1="184.344" y1="162.197" x2="71.362" y2="48.508" gradientUnits="userSpaceOnUse"><stop stop-color="#EBEAEA"/><stop offset="1" stop-color="#fff"/></linearGradient><clipPath id="b"><path fill="#fff" transform="translate(95 72)" d="M0 0h68v68H0z"/></clipPath></defs></svg>