<svg width="428" height="6635" fill="none" xmlns="http://www.w3.org/2000/svg"><path d="m103.222 6539.27 11.24 14.64c1.398 1.82-.871 4.17-2.743 2.85l-16.932-12.01c-1.908-1.35-4.19 1.11-2.696 2.91l23.489 28.31c1.493 1.8-.788 4.26-2.696 2.91l-33.793-23.96c-1.94-1.37-4.23 1.18-2.655 2.96l27.862 31.5c1.634 1.85-.872 4.44-2.773 2.87l-29.536-24.42c-1.904-1.58-4.411 1.02-2.769 2.87l37.908 42.6-34.263-31.58c-1.764-1.63-4.373.66-2.99 2.62l12.499 17.7c1.297 1.84-.956 4.09-2.79 2.79l-17.76-12.59c-1.917-1.36-4.201 1.12-2.684 2.92l5.564 6.58c1.518 1.79-.766 4.28-2.684 2.92l-8.696-6.16" stroke="#FFB75E" stroke-opacity=".29" stroke-linecap="round"/><path d="m350.141 6583.53-11.686 14.29c-1.453 1.77-4.266.1-3.401-2.02l7.817-19.23c.881-2.17-2.037-3.83-3.448-1.96l-22.192 29.34c-1.411 1.86-4.329.2-3.448-1.96l15.602-38.38c.895-2.2-2.112-3.85-3.485-1.91l-24.306 34.33c-1.426 2.01-4.52.16-3.424-2.05l17.028-34.33c1.098-2.22-2.006-4.06-3.428-2.04l-32.809 46.64 22.915-40.58c1.18-2.08-1.646-4.1-3.238-2.31l-14.376 16.22c-1.492 1.68-4.196 0-3.349-2.08l8.199-20.17c.885-2.18-2.059-3.83-3.459-1.95l-5.134 6.93c-1.4 1.88-4.344.23-3.459-1.95l4.015-9.87" stroke="#686868" stroke-opacity=".29" stroke-linecap="round"/><path opacity=".11" d="M56 47-8.667-18H-44l64.67 65H56ZM60.954 47-1-15h35.679L96 46.366 60.954 47Z" fill="#FFB75E"/><path d="m407.222 81.265 11.24 14.642c1.398 1.82-.871 4.177-2.743 2.85l-16.932-12.004c-1.908-1.353-4.19 1.108-2.696 2.908l23.489 28.309c1.493 1.8-.788 4.262-2.696 2.909l-33.793-23.958c-1.939-1.374-4.23 1.176-2.655 2.956l27.862 31.507c1.634 1.848-.872 4.438-2.773 2.866l-29.536-24.424c-1.904-1.574-4.411 1.026-2.769 2.871l37.908 42.599-34.263-31.58c-1.764-1.626-4.373.665-2.989 2.624l12.498 17.701c1.297 1.837-.956 4.085-2.79 2.785l-17.76-12.591c-1.917-1.359-4.201 1.129-2.684 2.923l5.564 6.58c1.518 1.794-.766 4.282-2.684 2.923l-8.696-6.165" stroke="#FFB75E" stroke-opacity=".29" stroke-linecap="round"/><path opacity=".11" d="m435 526-80.187-80H311l80.191 80H435ZM441.644 526 365 450h44.139L485 525.223l-43.356.777ZM471 3161l-91.18-92H330l91.185 92H471ZM479 4683l-111.227-112H307l111.233 112H479ZM445 4976.38H343.878L319 5001.26h125.999l.001-9.76v-15.12ZM77.221 4979.82l-81.898-.19L-27 5001.96l81.9.18 22.321-22.32ZM-44 4493l112 111.23V4665l-112-111.23V4493ZM-50 3165l91.18-92H91l-91.185 92H-50ZM478.502 3161 391 3073h50.392L528 3160.1l-49.498.9ZM488.664 4683 382 4576h61.427L549 4681.91l-60.336 1.09ZM465.5 4969.38l-87.345-.02 25.143-25.15 86.453.03-24.251 25.14ZM80.425 4973.36l-78.372-.03 22.56-22.56 77.571.03-21.76 22.56ZM-80 4595.34 27 4702v-61.43L-78.906 4535-80 4595.34ZM-57.502 3165 30 3077h-50.392L-107 3164.1l49.498.9ZM475.223 5180.07 272 5179.88l-30.5 22.33 211.403.18 22.32-22.32ZM530.921 5540l-143.568 143.83-37.353 5.78L499.355 5540h31.566ZM309 5689.61l143.568-143.83 37.353-5.78-149.355 149.61H309ZM72.921 5637l-143.568 143.83-37.353 5.78L41.355 5637H72.92ZM127.723 5180.07l-203.223-.19-30.5 22.33 211.403.18 22.32-22.32Z" fill="#FFB75E"/></svg>