<svg width="1920" height="7005" fill="none" xmlns="http://www.w3.org/2000/svg"><path opacity=".11" d="M212 255-106.161-65H-280L38.177 255H212ZM2027 1926l-318.16-320H1535l318.18 320H2027ZM1989 3302l-318.16-320H1497l318.18 320H1989ZM52 3102l-318.161-320H-440l318.177 320H52ZM2034 876l-318.16-320H1542l318.18 320H2034ZM239.3 255-66-51h175.82L412 251.872 239.3 255ZM2054.3 1926 1749 1620h175.82L2227 1922.87l-172.7 3.13ZM2016.3 3302 1711 2996h175.82L2189 3298.87l-172.7 3.13ZM79.3 3102-226 2796h175.82L252 3098.87 79.3 3102ZM2061.3 876 1756 570h175.82L2234 872.872 2061.3 876ZM1592.68 3965.86l336.32 1.95-97.4-97.4-332.89-1.93 93.97 97.38ZM1642.68 5448.86l336.32 1.95-97.4-97.4-332.89-1.93 93.97 97.38ZM-84.324 3965.86 252 3967.81l-97.405-97.4-332.886-1.93 93.967 97.38Z" fill="#FFB75E"/><g filter="url(#a)"><path d="m1829.88 4186.67 46.71 60.85c1.4 1.82-.87 4.17-2.74 2.85l-90.68-64.29c-1.91-1.36-4.19 1.1-2.7 2.9l102.3 123.29c1.49 1.8-.79 4.27-2.7 2.91l-144.58-102.5c-1.94-1.37-4.23 1.18-2.65 2.96l131.27 148.44c1.63 1.85-.87 4.44-2.77 2.87l-157.06-129.88c-1.91-1.57-4.41 1.03-2.77 2.87l139.45 156.71-122.65-113.05c-1.77-1.62-4.37.67-2.99 2.63l67.79 96.01c1.3 1.84-.95 4.09-2.79 2.79l-91.5-64.88c-1.92-1.36-4.21 1.13-2.69 2.92l53.21 62.92c1.52 1.8-.77 4.29-2.68 2.93l-48.31-34.25" stroke="#FFB75E" stroke-opacity=".76" stroke-width="2" stroke-linecap="round"/></g><g filter="url(#b)"><path d="m113.753 4599.29 44.621 58.12c1.398 1.82-.871 4.18-2.743 2.85l-86.33-61.21c-1.908-1.35-4.19 1.11-2.696 2.91l97.646 117.69c1.493 1.8-.788 4.26-2.696 2.91l-138.042-97.87c-1.939-1.37-4.23 1.18-2.655 2.96l125.169 141.54c1.634 1.85-.872 4.44-2.773 2.87L-6.279 4648.4c-1.904-1.57-4.41 1.03-2.768 2.88l133.458 149.97L6.975 4693.01c-1.764-1.63-4.373.66-2.99 2.62l64.534 91.4c1.297 1.83-.956 4.08-2.79 2.78l-87.159-61.79c-1.917-1.36-4.2 1.13-2.683 2.92l50.398 59.6c1.518 1.79-.767 4.28-2.684 2.92l-45.97-32.59" stroke="#D3D3D3" stroke-opacity=".76" stroke-width="2" stroke-linecap="round"/></g><path d="m1219.75-42.714 44.62 58.124c1.4 1.82-.87 4.176-2.74 2.85l-86.33-61.206c-1.91-1.352-4.19 1.11-2.7 2.91l97.65 117.684c1.49 1.8-.79 4.262-2.7 2.909l-138.04-97.866c-1.94-1.374-4.23 1.177-2.65 2.957l125.17 141.541c1.63 1.848-.87 4.438-2.78 2.866L1099.72 6.405c-1.9-1.575-4.41 1.025-2.77 2.87l133.46 149.973-117.44-108.24c-1.76-1.625-4.37.665-2.98 2.625l64.53 91.393c1.3 1.836-.96 4.085-2.79 2.785l-87.16-61.791c-1.92-1.36-4.2 1.128-2.68 2.923l50.4 59.597c1.51 1.794-.77 4.282-2.69 2.923l-45.97-32.592" stroke="#FFB75E" stroke-opacity=".29" stroke-width="2" stroke-linecap="round"/><path opacity=".17" d="m2007.28 3980.63-407.28.02 24.34 24.34 232.1-.02 59.24 59.24h128.25l-36.65-83.58ZM2057.28 5463.63l-407.28.02 24.34 24.34 232.1-.02 59.24 59.24h128.25l-36.65-83.58ZM173.276 5358.63l-407.276.02 24.344 24.34 232.096-.02 59.239 59.24h128.255l-36.658-83.58Z" fill="#5C5C5C" fill-opacity=".29"/><path opacity=".17" d="m1685.72 4681.97 221.62-221.62-3.44-3.44-221.62 221.62 3.44 3.44ZM1696.72 4691.61l221.62-221.62-3.44-3.44-221.62 221.61 3.44 3.45ZM1714.72 4696.61l221.62-221.62-3.44-3.44-221.62 221.61 3.44 3.45ZM1694.44 4746.06l221.62-221.62-3.44-3.44L1691 4742.62l3.44 3.44ZM1722.44 4746.06l221.62-221.62-3.44-3.44L1719 4742.62l3.44 3.44ZM1753.44 4743.06l221.62-221.62-3.44-3.44L1750 4739.62l3.44 3.44ZM1778.44 4743.06l221.62-221.62-3.44-3.44L1775 4739.62l3.44 3.44ZM1801.44 4743.06l221.62-221.62-3.44-3.44L1798 4739.62l3.44 3.44ZM1824.44 4746.06l221.62-221.62-3.44-3.44L1821 4742.62l3.44 3.44Z" fill="#FFB75E"/><g filter="url(#c)"><path d="m1111.75 6746.29 44.62 58.12c1.4 1.82-.87 4.18-2.74 2.85l-86.33-61.21c-1.91-1.35-4.19 1.11-2.7 2.91l97.65 117.69c1.49 1.8-.79 4.26-2.7 2.91l-138.04-97.87c-1.94-1.37-4.23 1.18-2.65 2.96l125.17 141.54c1.63 1.85-.87 4.44-2.78 2.87L991.721 6795.4c-1.904-1.57-4.411 1.03-2.768 2.88l133.457 149.97-117.44-108.24c-1.76-1.63-4.37.66-2.98 2.62l64.53 91.4c1.3 1.83-.96 4.08-2.79 2.78l-87.16-61.79c-1.917-1.36-4.201 1.13-2.683 2.92l50.403 59.6c1.51 1.79-.77 4.28-2.69 2.92l-45.97-32.59" stroke="#FFB75E" stroke-opacity=".76" stroke-width="2" stroke-linecap="round"/></g><g filter="url(#d)"><path d="m149.753 6716.29 44.621 58.12c1.398 1.82-.871 4.18-2.743 2.85l-86.33-61.21c-1.908-1.35-4.19 1.11-2.696 2.91l97.646 117.69c1.493 1.8-.788 4.26-2.696 2.91l-138.042-97.87c-1.939-1.37-4.23 1.18-2.655 2.96l125.169 141.54c1.634 1.85-.872 4.44-2.773 2.87L29.721 6765.4c-1.904-1.57-4.41 1.03-2.768 2.88l133.458 149.97-117.436-108.24c-1.764-1.63-4.373.66-2.99 2.62l64.534 91.4c1.297 1.83-.956 4.08-2.791 2.78l-87.158-61.79c-1.917-1.36-4.2 1.13-2.684 2.92l50.4 59.6c1.517 1.79-.768 4.28-2.685 2.92l-45.97-32.59" stroke="#D3D3D3" stroke-opacity=".76" stroke-width="2" stroke-linecap="round"/></g><defs><filter id="a" x="1680.63" y="4180.68" width="207.633" height="220.709" filterUnits="userSpaceOnUse" color-interpolation-filters="sRGB"><feFlood flood-opacity="0" result="BackgroundImageFix"/><feBlend in="SourceGraphic" in2="BackgroundImageFix" result="shape"/><feGaussianBlur stdDeviation="2" result="effect1_foregroundBlur_392_177"/></filter><filter id="b" x="-29.619" y="4593.65" width="199.363" height="212.329" filterUnits="userSpaceOnUse" color-interpolation-filters="sRGB"><feFlood flood-opacity="0" result="BackgroundImageFix"/><feBlend in="SourceGraphic" in2="BackgroundImageFix" result="shape"/><feGaussianBlur stdDeviation="2" result="effect1_foregroundBlur_392_177"/></filter><filter id="c" x="968.381" y="6740.65" width="199.363" height="212.329" filterUnits="userSpaceOnUse" color-interpolation-filters="sRGB"><feFlood flood-opacity="0" result="BackgroundImageFix"/><feBlend in="SourceGraphic" in2="BackgroundImageFix" result="shape"/><feGaussianBlur stdDeviation="2" result="effect1_foregroundBlur_392_177"/></filter><filter id="d" x="6.381" y="6710.65" width="199.363" height="212.329" filterUnits="userSpaceOnUse" color-interpolation-filters="sRGB"><feFlood flood-opacity="0" result="BackgroundImageFix"/><feBlend in="SourceGraphic" in2="BackgroundImageFix" result="shape"/><feGaussianBlur stdDeviation="2" result="effect1_foregroundBlur_392_177"/></filter></defs></svg>